<?xml version="1.0" encoding="utf-8"?>
<!-- Generator: Adobe Illustrator 16.0.0, SVG Export Plug-In . SVG Version: 6.00 Build 0)  -->
<!DOCTYPE svg PUBLIC "-//W3C//DTD SVG 1.1//EN" "http://www.w3.org/Graphics/SVG/1.1/DTD/svg11.dtd">
<svg version="1.1" id="Layer_1" xmlns="http://www.w3.org/2000/svg" xmlns:xlink="http://www.w3.org/1999/xlink" x="0px" y="0px"
	 width="512px" height="512px" viewBox="0 0 512 512" enable-background="new 0 0 512 512" xml:space="preserve">
<g>
	<path fill-rule="evenodd" clip-rule="evenodd" fill="#FFFFFF" d="M255.83,335.169c3.428-4.377,5.007-6.884,7.051-8.931
		c66.892-66.992,133.847-133.923,200.728-200.927c5.594-5.603,11.548-9.989,19.869-10.13c10.867-0.184,18.984,4.475,23.755,14.113
		c4.931,9.96,3.461,19.498-3.577,28.094c-1.502,1.835-3.271,3.453-4.953,5.136c-73.473,73.504-146.946,147.005-220.426,220.501
		c-16.065,16.07-28.625,16.038-44.763-0.104C159.661,309.051,85.85,235.136,11.904,161.358c-7.483-7.466-11.609-15.775-9.397-26.307
		c3.836-18.253,25.972-26.077,40.692-14.487c2.48,1.953,4.648,4.312,6.891,6.555c66.379,66.385,132.756,132.772,199.083,199.21
		C251.208,328.365,252.688,330.957,255.83,335.169z"/>
</g>
</svg>
