<?xml version="1.0" encoding="utf-8"?>
<!-- Generator: Adobe Illustrator 16.0.0, SVG Export Plug-In . SVG Version: 6.00 Build 0)  -->
<!DOCTYPE svg PUBLIC "-//W3C//DTD SVG 1.1//EN" "http://www.w3.org/Graphics/SVG/1.1/DTD/svg11.dtd">
<svg version="1.1" id="Layer_1" xmlns="http://www.w3.org/2000/svg" xmlns:xlink="http://www.w3.org/1999/xlink" x="0px" y="0px"
	 width="512px" height="512px" viewBox="0 0 512 512" enable-background="new 0 0 512 512" xml:space="preserve">
<path fill="#F9F9FA" d="M443.533,269.34c0,103.649-84.026,187.681-187.682,187.681c-103.654,0-187.681-84.031-187.681-187.681
	c0-103.653,84.027-187.682,187.681-187.682C359.507,81.658,443.533,165.687,443.533,269.34z"/>
<circle fill="#F9F9FA" cx="29.431" cy="388.323" r="16.354"/>
<path fill="#F9F9FA" d="M173.753,58.106c0,5.105-4.139,9.246-9.247,9.246c-5.103,0-9.243-4.14-9.243-9.246
	c0-5.107,4.14-9.246,9.243-9.246C169.614,48.86,173.753,52.999,173.753,58.106z"/>
<path fill="#F9F9FA" d="M101.241,444.133c0,18.648-15.117,33.775-33.775,33.775c-18.645,0-33.769-15.127-33.769-33.775
	c0-18.652,15.125-33.77,33.769-33.77C86.124,410.363,101.241,425.48,101.241,444.133z"/>
<path fill="#F9F9FA" d="M459.536,166.163c0,9.423-7.639,17.067-17.062,17.067c-9.422,0-17.062-7.644-17.062-17.067
	c0-9.424,7.64-17.063,17.062-17.063C451.897,149.1,459.536,156.739,459.536,166.163z"/>
<path fill="#F9F9FA" d="M117.969,56.155H99.84V38.026c0-2.345-1.92-4.265-4.265-4.265H81.712c-2.345,0-4.266,1.92-4.266,4.265
	v18.129H59.318c-2.345,0-4.265,1.92-4.265,4.266v13.862c0,2.346,1.92,4.266,4.265,4.266h18.128v18.128
	c0,2.345,1.921,4.266,4.266,4.266h13.863c2.345,0,4.265-1.921,4.265-4.266V78.548h18.128c2.345,0,4.266-1.92,4.266-4.266V60.42
	C122.234,58.075,120.314,56.155,117.969,56.155z"/>
<path fill="#F9F9FA" d="M439.326,102.367h-11.988V90.378c0-1.551-1.276-2.822-2.824-2.822h-9.172c-1.551,0-2.816,1.271-2.816,2.822
	v11.988h-11.997c-1.55,0-2.816,1.27-2.816,2.822v9.168c0,1.552,1.267,2.822,2.816,2.822h11.997v11.99
	c0,1.55,1.266,2.821,2.816,2.821h9.172c1.548,0,2.824-1.271,2.824-2.821v-11.99h11.988c1.549,0,2.814-1.271,2.814-2.822v-9.168
	C442.141,103.637,440.875,102.367,439.326,102.367z"/>
<path fill="#F9F9FA" d="M81.254,385.19h-6.237v-6.231c0-0.809-0.657-1.467-1.465-1.467h-4.77c-0.804,0-1.465,0.658-1.465,1.467
	v6.231H61.08c-0.804,0-1.465,0.663-1.465,1.468v4.772c0,0.804,0.662,1.466,1.465,1.466h6.237v6.231c0,0.809,0.662,1.467,1.465,1.467
	h4.77c0.808,0,1.465-0.658,1.465-1.467v-6.231h6.237c0.808,0,1.466-0.662,1.466-1.466v-4.772
	C82.72,385.854,82.063,385.19,81.254,385.19z"/>
<path fill="#F9F9FA" d="M494.303,399.708h-20.049v-20.044c0-2.592-2.12-4.718-4.72-4.718H454.21c-2.596,0-4.721,2.126-4.721,4.718
	v20.044h-20.043c-2.597,0-4.721,2.124-4.721,4.719v15.33c0,2.589,2.124,4.715,4.721,4.715h20.043v20.044
	c0,2.596,2.125,4.72,4.721,4.72h15.324c2.6,0,4.72-2.124,4.72-4.72v-20.044h20.049c2.586,0,4.711-2.126,4.711-4.715v-15.33
	C499.014,401.832,496.889,399.708,494.303,399.708z"/>
<g>
	<path fill="#2DB9E5" d="M201.261,325.727l-10.953-18.257l-29.207-10.945l21.904-3.651l-14.601-32.861l18.252,14.605l10.954-10.954
		v29.21l18.252,29.202c0,0,14.605-32.853-3.647-58.412c-18.257-25.551-58.417-29.202-58.417-29.202s-10.95,40.156,0,65.715
		C164.752,325.727,201.261,325.727,201.261,325.727z"/>
	<path fill="#2DB9E5" d="M309.669,360.414h-46.985c0.801-2.596,0.549-5.553-1.092-8.183l-5.569-8.91v-2.989v-3.651l-2.077,3.324
		l-0.934-1.499v2.99l-5.57,8.91c-1.641,2.629-1.896,5.586-1.092,8.182h-46.986c-2.358,8.97,4.338,18.249,14.116,18.249h39.532v1.824
		h42.538C305.327,378.661,312.022,369.383,309.669,360.414z"/>
	<path fill="#FFFFFF" d="M247.442,350.406l8.581-13.726v-7.303v-7.303h-7.298c-8.069,0-14.605-6.54-14.605-14.605h7.298
		c8.069,0,14.605,6.541,14.605,14.605v-7.303v-29.201c-7.948,0-12.792-8.744-8.581-15.485l8.581-13.726v-21.899h-25.555
		c-4.033,0-7.303,3.267-7.303,7.294c0,4.037,3.271,7.303,7.303,7.303h14.6h-14.6v43.815l-30.162,63.061
		c-0.418,0.87-0.708,1.758-0.942,2.654h46.986C245.546,355.992,245.801,353.035,247.442,350.406z M215.862,351.286l3.651-7.304
		L215.862,351.286z M223.165,336.681l7.303-14.605L223.165,336.681z"/>
	<path fill="#2DB9E5" d="M264.107,270.145l-8.085-12.938v-0.846l-0.264,0.427l-0.23-0.369v0.729l-8.086,12.938
		c-4.12,6.599,0.44,15.091,8.086,15.451v0.093C263.475,285.63,268.315,276.887,264.107,270.145z"/>
	<polygon fill="#FFFFFF" points="281.573,194.297 276.104,188.82 256.022,208.902 256.022,216.205 259.673,216.205 	"/>
	<polygon fill="#21567E" points="276.104,188.82 281.573,194.297 285.224,197.948 287.058,196.131 277.926,186.995 	"/>
	<path fill="#2DB9E5" d="M293.305,169.601l-16.263,15.802l4.07,3.979l10.175,9.975l14.22-13.818
		c5.594-5.485,5.603-14.362,0.043-19.865C301.211,165.053,296.647,166.326,293.305,169.601z"/>
	<path fill="#EA9E2D" d="M361.893,271.091c0,0-32.853-10.954-54.761,7.303s-10.954,43.682-10.954,43.682l14.605-14.471l7.303-21.908
		l3.651,10.954l25.56-10.954l-36.514,40.156c0,0,16.506,9.981,32.861-3.652C365.544,303.953,361.893,271.091,361.893,271.091z"/>
	<g>
		<path fill="#EA9E2D" d="M277.926,314.772h-7.298c-8.065,0-14.605,6.541-14.605,14.605h7.302
			C271.39,329.378,277.926,322.837,277.926,314.772z"/>
		<path fill="#EA9E2D" d="M241.417,307.47h-7.298c0,8.065,6.536,14.605,14.605,14.605h7.298
			C256.022,314.011,249.486,307.47,241.417,307.47z"/>
	</g>
	<path fill="#183651" d="M256.022,289.223c5.079,0,9.58-2.655,12.042-7.094c2.463-4.447,2.328-9.672-0.368-13.977l-8.58-13.727
		c-1.331-2.127-4.857-2.127-6.188,0l-8.58,13.727c-2.692,4.305-2.831,9.529-0.369,13.977
		C246.441,286.567,250.942,289.223,256.022,289.223z M250.541,272.021l5.481-8.768l5.485,8.768c1.265,2.027,1.327,4.48,0.175,6.565
		c-1.163,2.085-3.274,3.333-5.66,3.333c-2.383,0-4.498-1.248-5.657-3.333C249.21,276.501,249.272,274.048,250.541,272.021z"/>
	<path fill="#183651" d="M256.022,223.508h10.954c0.967,0,1.893-0.386,2.579-1.072l19.319-19.321l1.072,1.064l7.302,7.302
		l5.164-5.159l-4.711-4.706l12.01-11.909c3.132-3.123,4.849-7.285,4.849-11.707c0-4.422-1.717-8.584-4.849-11.707
		c-6.457-6.449-16.951-6.457-23.402-0.017l-12.022,11.917l-4.731-4.731l-5.163,5.167l7.298,7.302l1.072,1.064l-19.32,19.328
		c-0.687,0.679-1.071,1.608-1.071,2.58v10.953C252.371,221.875,254.004,223.508,256.022,223.508z M291.459,171.451
		c3.604-3.609,9.483-3.609,13.094,0c1.745,1.75,2.705,4.079,2.705,6.549s-0.96,4.798-2.697,6.532l-12.021,11.917l-1.08-1.08
		l-10.95-10.955l-1.06-1.055L291.459,171.451z M259.673,210.418l18.253-18.256l5.791,5.786l-18.256,18.257h-5.788V210.418
		L259.673,210.418z"/>
	<path fill="#183651" d="M365.527,270.689c-0.159-1.415-1.131-2.604-2.479-3.058c-1.416-0.477-35.048-11.372-58.253,7.957
		c-10.05,8.374-13.719,18.18-14.644,26.756l-4.929-10.301v-39.955c4.255-1.507,7.304-5.568,7.304-10.325
		c0-6.047-4.908-10.955-10.954-10.955h-51.105c-6.039,0-10.955,4.907-10.955,10.955c0,4.756,3.053,8.818,7.302,10.325v39.955
		l-1.779,3.719c0.255-10.712-1.863-23.03-9.853-34.218c-19.005-26.615-59.342-30.567-61.05-30.727
		c-1.793-0.167-3.388,0.972-3.857,2.68c-0.457,1.691-11.155,41.688,0.168,68.11c11.766,27.45,49.225,27.77,50.816,27.77
		c1.315,0,2.53-0.703,3.178-1.851c0.649-1.147,0.628-2.554-0.046-3.677l-10.954-18.256c-0.423-0.704-1.076-1.248-1.847-1.541
		l-16.459-6.173l8.475-1.406c1.113-0.184,2.081-0.88,2.613-1.877c0.536-0.995,0.577-2.177,0.125-3.207l-8.521-19.161l6.552,5.243
		c1.45,1.155,3.547,1.046,4.862-0.276l4.719-4.715v20.392c0,0.679,0.193,1.356,0.557,1.935l17.549,28.08l-15.053,31.471
		c-2.722,5.695-2.337,12.27,1.025,17.612c3.363,5.335,9.138,8.517,15.444,8.517h85.084c6.307,0,12.081-3.182,15.442-8.517
		c3.358-5.343,3.743-11.917,1.026-17.612l-14.868-31.086l13.189-13.08c0.409-0.402,0.712-0.896,0.892-1.433l3.84-11.516l0.188,0.563
		c0.322,0.963,1.034,1.758,1.968,2.176c0.934,0.411,1.998,0.428,2.932,0.026l10.12-4.339l-25.212,27.729
		c-0.732,0.812-1.067,1.909-0.908,2.989c0.158,1.081,0.787,2.027,1.721,2.597c3.267,1.968,8.966,4.02,15.678,4.02
		c6.611,0,14.202-1.993,21.409-7.989C369.129,305.72,365.679,272.113,365.527,270.689z M199.008,260.287
		c-1.365-0.568-2.936-0.25-3.978,0.797l-8.643,8.642l-15.702-12.562c-1.315-1.046-3.179-1.072-4.515-0.042
		c-1.331,1.03-1.792,2.831-1.105,4.372l12.688,28.548l-17.251,2.882c-1.629,0.268-2.872,1.599-3.036,3.249
		c-0.16,1.642,0.808,3.183,2.353,3.769l28.013,10.502l6.658,11.096c-10.485-1.356-30.183-6.112-37.334-22.803
		c-8.618-20.108-2.797-50.542-0.583-60.239c9.514,1.449,38.443,7.378,52.667,27.292c11.967,16.749,8.613,37.3,5.653,47.844
		l-13.634-21.808v-28.163C201.261,262.188,200.374,260.857,199.008,260.287z M233.762,294.447c0.235-0.494,0.356-1.029,0.356-1.574
		v-40.164h10.949v-7.303h-14.6c-2.015,0-3.652-1.632-3.652-3.651c0-2.01,1.637-3.643,3.652-3.643h51.105
		c2.018,0,3.65,1.633,3.65,3.643c0,2.019-1.633,3.651-3.65,3.651h-14.597v7.303h10.949v40.164c0,0.545,0.121,1.08,0.356,1.574
		l28.93,60.489h-37.456c-0.133-2.261-0.837-4.479-2.06-6.465l-8.023-12.838v-2.604h3.651c10.067,0,18.249-8.19,18.249-18.257
		c0-2.019-1.63-3.65-3.647-3.65h-7.298c-4.129,0-7.897,1.432-10.955,3.742v-0.092h-1.545c-2.827-6.432-9.241-10.944-16.711-10.944
		h-7.298c-2.019,0-3.651,1.624-3.651,3.642c0,10.066,8.189,18.257,18.256,18.257h3.647v9.907l-8.023,12.838
		c-1.236,1.976-1.935,4.204-2.06,6.465h-37.456L233.762,294.447z M260.293,325.727c1.508-4.246,5.569-7.303,10.335-7.303h3.022
		c-1.507,4.255-5.568,7.303-10.326,7.303H260.293z M251.747,318.424h-3.022c-4.761,0-8.823-3.049-10.33-7.302h3.023
		C246.178,311.122,250.24,314.178,251.747,318.424z M307.831,368.077c-2.014,3.199-5.481,5.108-9.267,5.108H213.48
		c-3.782,0-7.249-1.909-9.267-5.108c-1.126-1.792-1.633-3.812-1.633-5.846h43.765c1.161,0,2.249-0.544,2.94-1.483
		c0.687-0.93,0.892-2.135,0.548-3.24c-0.536-1.741-0.285-3.576,0.708-5.167l5.481-8.776l5.468,8.76
		c0.662,1.063,0.989,2.211,0.989,3.408c0,0.628-0.085,1.189-0.261,1.742c-0.351,1.105-0.158,2.319,0.528,3.266
		c0.69,0.938,1.784,1.491,2.947,1.491h43.771C309.469,364.266,308.958,366.285,307.831,368.077z M341.309,319.396
		c-9.572,7.972-19.082,6.809-24.388,5.133l33.072-36.37c1.155-1.281,1.272-3.183,0.276-4.581c-1.006-1.406-2.848-1.909-4.413-1.239
		l-21.908,9.388l-2.404-7.186c-0.494-1.49-1.884-2.494-3.458-2.494s-2.965,1.004-3.464,2.494l-7.03,21.079l-9.639,9.564
		c-1.624-7.814-2.239-22.52,11.516-33.984c16.841-14.036,41.361-9.246,48.949-7.294C358.711,281.51,358.166,305.352,341.309,319.396
		z"/>
	
		<rect x="218.655" y="325.726" transform="matrix(0.4472 -0.8944 0.8944 0.4472 -169.2196 384.96)" fill="#EA9E2D" width="16.329" height="7.303"/>
	<polygon fill="#2DB9E5" points="222.784,345.624 219.137,352.919 212.604,349.66 216.256,342.358 	"/>
	<path fill="#183651" d="M219.513,205.251c12.081,0,21.904-9.824,21.904-21.908c0-12.076-9.823-21.899-21.904-21.899
		c-12.076,0-21.903,9.823-21.903,21.899C197.61,195.427,207.438,205.251,219.513,205.251z M219.513,168.746
		c8.056,0,14.605,6.549,14.605,14.597c0,8.057-6.549,14.605-14.605,14.605c-8.052,0-14.6-6.548-14.6-14.605
		C204.913,175.295,211.461,168.746,219.513,168.746z"/>
	<path fill="#EA9E2D" d="M235.785,183.343c0,8.986-7.286,16.271-16.272,16.271c-8.981,0-16.268-7.285-16.268-16.271
		c0-8.986,7.286-16.263,16.268-16.263C228.499,167.08,235.785,174.357,235.785,183.343z"/>
	<path fill="#EA9E2D" d="M334.659,234.461c0,5.117-4.154,9.271-9.271,9.271c-5.124,0-9.278-4.154-9.278-9.271
		c0-5.125,4.154-9.279,9.278-9.279C330.505,225.182,334.659,229.336,334.659,234.461z"/>
	<path fill="#183651" d="M325.388,249.058c8.049,0,14.605-6.549,14.605-14.597c0-8.056-6.557-14.605-14.605-14.605
		c-8.056,0-14.604,6.549-14.604,14.605C310.783,242.509,317.332,249.058,325.388,249.058z M325.388,227.159
		c4.02,0,7.304,3.273,7.304,7.302c0,4.02-3.284,7.294-7.304,7.294c-4.027,0-7.302-3.274-7.302-7.294
		C318.086,230.432,321.36,227.159,325.388,227.159z"/>
	<rect x="208.564" y="179.691" fill="#FFFFFF" width="7.298" height="7.303"/>
</g>
</svg>
