<?xml version="1.0" encoding="utf-8"?>
<!-- Generator: Adobe Illustrator 16.0.0, SVG Export Plug-In . SVG Version: 6.00 Build 0)  -->
<!DOCTYPE svg PUBLIC "-//W3C//DTD SVG 1.1//EN" "http://www.w3.org/Graphics/SVG/1.1/DTD/svg11.dtd">
<svg version="1.1" id="Layer_1" xmlns="http://www.w3.org/2000/svg" xmlns:xlink="http://www.w3.org/1999/xlink" x="0px" y="0px"
	 width="512px" height="512px" viewBox="0 0 512 512" enable-background="new 0 0 512 512" xml:space="preserve">
<g>
	<path fill-rule="evenodd" clip-rule="evenodd" fill="#676767" d="M504,472.179c-2.525,3.069-5.146,5.95-9.734,4.169
		c-4.479-1.739-4.828-5.514-4.823-9.585c0.035-29.723,0.019-59.444,0.019-89.166c0-1.77,0-3.54,0-6.128
		c-1.427,1.104-2.423,1.723-3.235,2.526c-4.826,4.771-9.484,9.714-14.44,14.342c-4.68,4.369-6.733,9.48-6.674,15.917
		c0.189,20.35,0.071,40.705,0.068,61.059c0,1.292,0.064,2.588-0.033,3.874c-0.348,4.604-3.194,7.653-7.144,7.73
		c-4.126,0.08-7.251-3.126-7.314-7.973c-0.124-9.528-0.046-19.061-0.049-28.592c-0.001-12.275,0.104-24.552-0.03-36.829
		c-0.106-9.758,3.286-17.927,10.214-24.751c7.231-7.122,14.37-14.336,22.185-22.145c-3.236-2.035-5.873-4.127-8.844-5.487
		c-12.315-5.636-24.764-10.986-37.09-16.604c-2.463-1.122-3.973-0.825-5.861,1.112c-8.347,8.557-16.983,16.831-25.217,25.492
		c-1.646,1.731-2.798,4.7-2.811,7.105c-0.181,32.467-0.119,64.936-0.124,97.402c0,7.691-2.528,11.429-7.563,11.245
		c-4.807-0.173-6.976-3.644-6.976-11.213c-0.003-32.469,0.06-64.937-0.126-97.404c-0.014-2.393-1.216-5.337-2.867-7.071
		c-8.236-8.656-16.863-16.941-25.223-25.485c-1.837-1.877-3.294-2.399-5.835-1.24c-12.468,5.698-25.067,11.105-37.536,16.797
		c-2.838,1.295-5.349,3.309-8.555,5.336c7.318,7.297,13.858,14.192,20.809,20.647c8.378,7.784,11.909,17.226,11.784,28.537
		c-0.219,19.866-0.061,39.735-0.063,59.604c-0.001,1.292,0.062,2.593-0.076,3.873c-0.486,4.589-3.399,7.614-7.247,7.626
		c-4.11,0.012-7.137-3.14-7.16-8.067c-0.095-20.998-0.208-41.998,0.026-62.995c0.082-7.463-2.153-13.413-7.684-18.499
		c-5.338-4.909-10.19-10.344-16.395-16.718c-0.148,3.206-0.3,4.972-0.301,6.738c-0.014,29.398-0.005,58.796-0.014,88.195
		c-0.002,7.704-2.488,11.448-7.475,11.341c-4.818-0.103-7.061-3.606-7.063-11.125c-0.007-29.724,0.158-59.445-0.059-89.166
		c-0.143-19.147,8.433-32.205,25.909-39.743c12.143-5.237,24.13-10.836,36.309-15.982c5.479-2.315,7.761-5.894,7.919-11.874
		c0.153-5.711-1.368-9.707-5.637-13.853c-11.454-11.128-17.326-25.079-17.67-41.157c-0.063-3.037-0.677-5.35-3.166-7.566
		c-2.027-1.804-4.02-4.75-4.219-7.329c-1.277-16.679-1.583-33.348,7.485-48.441c10.948-18.218,26.873-29.055,48.188-30.79
		c16.449-1.339,33.065-1.98,48.34,6.108c22.029,11.667,33.33,30.185,34.222,55.056c0.189,5.271-1.663,9.671-5.623,13.377
		c-1.267,1.186-1.825,3.514-2.03,5.393c-1.108,10.222-1.113,20.655-3.219,30.653c-2.267,10.771-8.838,19.623-17.012,27.063
		c-6.254,5.692-4.245,19.272,3.518,22.792c10.28,4.661,20.431,9.698,30.979,13.664c16.253,6.112,28.262,15.832,32.241,33.521
		C504,402.392,504,437.285,504,472.179z M442.618,240.143c-11.424-0.537-22.426-0.414-33.258-1.718
		c-15.384-1.85-29.133-8.034-40.639-18.668c-3.907-3.611-4.501-7.82-1.762-11.067c2.753-3.262,7.226-3.391,11.146,0.024
		c21.355,18.597,46.281,18.522,72.036,14.41c2.291-18.528-12.147-39.825-30.487-46.224c-9.734-3.397-19.682-3.077-29.667-3.014
		c-32.773,0.208-54.168,26.54-48.35,61.799c0.773-0.282,1.571-0.428,2.207-0.827c2.996-1.874,5.916-3.867,8.921-5.722
		c3.51-2.167,6.838-1.745,9.595,1.281c2.576,2.829,2.212,7.085-0.845,9.984c-1.864,1.768-3.933,3.362-6.07,4.796
		c-7.178,4.818-7.819,6.081-6.177,14.62c0.516,2.679,1.384,5.301,2.225,7.904c9.604,29.716,48.229,41.203,72.671,21.785
		C440.42,276.593,444.429,259.374,442.618,240.143z M395.764,350.623c8.68-8.691,17.01-16.976,25.231-25.365
		c0.714-0.729,1.187-2.251,0.974-3.23c-0.898-4.153-2.1-8.243-3.263-12.625c-15.238,5.863-30.771,5.735-45.925,0.084
		c-1.193,4.42-2.387,8.392-3.271,12.429c-0.224,1.019,0.197,2.604,0.92,3.341C378.658,333.628,387.001,341.886,395.764,350.623z"/>
	<path fill-rule="evenodd" clip-rule="evenodd" fill="#676767" d="M504,52.49c-13.125,16.992-26.204,34.019-39.409,50.948
		c-3.036,3.893-7.396,4.581-10.615,2.176c-3.478-2.602-3.899-6.946-0.719-11.129c6.433-8.463,13.029-16.802,20.5-26.405
		c-2.903,1.033-4.483,1.522-6.008,2.148C319.631,131.055,171.517,191.892,23.397,252.721c-1.788,0.733-3.588,1.51-5.456,1.965
		c-3.659,0.891-6.481-0.666-7.971-3.909c-1.476-3.212-0.919-6.425,2.114-8.628c1.538-1.117,3.374-1.872,5.154-2.603
		C165.204,178.767,313.177,118.008,461.147,57.24c1.841-0.755,3.649-1.586,5.267-3.357c-10.635-1.416-21.284-2.731-31.896-4.287
		c-6.001-0.879-9.235-6.577-5.845-10.759c1.615-1.995,5.261-3.701,7.749-3.421c20.045,2.255,40.052,4.881,60.015,7.776
		c2.68,0.389,5.05,2.915,7.563,4.452C504,49.259,504,50.875,504,52.49z"/>
	<path fill-rule="evenodd" clip-rule="evenodd" fill="#676767" d="M7.74,406.27c2.108-9.856,8.571-15.718,17.427-19.766
		c8.499-3.884,16.756-8.296,25.114-12.487c4.423-2.217,6.151-11.374,2.445-14.607c-10.556-9.208-14.408-20.882-14.017-34.568
		c0.282-9.847-0.156-19.66,4.875-28.723c7.97-14.36,23.235-21.95,39.918-19.567c14.947,2.134,28.522,14.519,30.862,30.106
		c1.444,9.624,1.167,19.658,0.429,29.413c-0.677,8.956-5.582,16.339-12.235,22.442c-4.866,4.464-3.758,12.846,1.98,15.76
		c2.584,1.313,5.246,2.526,7.656,4.113c3.071,2.023,3.981,5.084,2.623,8.486c-1.347,3.374-3.939,4.723-7.698,4.45
		c-1.62-0.118-3.757,0.54-4.926,1.631c-5.307,4.955-10.485,10.068-15.407,15.402c-1.342,1.456-2.283,3.876-2.303,5.864
		c-0.178,17.112-0.101,34.227-0.105,51.341c0,1.453,0.051,2.913-0.073,4.356c-0.356,4.145-2.755,6.659-6.788,6.886
		c-4.077,0.225-6.815-2.151-7.396-6.184c-0.456-3.168-0.267-6.438-0.271-9.662c-0.02-15.499,0.103-31-0.134-46.496
		c-0.035-2.247-1.229-4.945-2.771-6.62c-5.452-5.923-11.288-11.493-17.113-17.332c-7.691,3.84-15.2,7.531-22.653,11.334
		c-3.718,1.897-4.952,5.147-4.934,9.23c0.08,18.729,0.16,37.458-0.104,56.184c-0.039,2.75-1.232,6.164-3.113,8.058
		c-3.22,3.243-7.127,1.834-11.288-3.136C7.74,450.209,7.74,428.239,7.74,406.27z M53.61,323.93
		c-1.243,10.539,1.365,19.634,10.522,25.676c8.417,5.552,17.427,5.516,25.937,0.095c7.236-4.609,10.712-11.497,10.744-19.869
		C84.75,327.823,69.305,325.892,53.61,323.93z M54.398,309.197c15.422,1.988,30.747,3.965,46.253,5.965
		c-0.04-13.053-8.875-23.04-20.21-24.285C67.842,289.493,57.202,296.623,54.398,309.197z M76.861,396.327
		c4.427-4.371,8.942-8.83,12.643-12.483c-1.821-5.445-3.553-10.626-5.348-15.988c-4.505,0-9.704,0-14.014,0
		c-1.869,5.551-3.61,10.724-5.444,16.168C68.38,387.747,72.771,392.191,76.861,396.327z"/>
	<path fill-rule="evenodd" clip-rule="evenodd" fill="#676767" d="M249.5,354.123c-5.284,5.331-10.756,10.585-15.851,16.185
		c-1.198,1.317-1.562,3.792-1.566,5.737c-0.095,29.882-0.062,59.765-0.07,89.648c-0.002,7.558-2.207,11.045-7.016,11.201
		c-5.02,0.163-7.52-3.548-7.522-11.269c-0.01-29.561-0.075-59.122,0.08-88.68c0.02-3.895-1.118-6.628-3.924-9.28
		c-4.668-4.413-8.933-9.254-13.174-13.712c-14.912,7.49-29.006,14.569-44.489,22.346c4.094,3.63,7.813,6.711,11.282,10.051
		c6.828,6.571,10.413,14.542,10.357,24.176c-0.11,19.06-0.029,38.121-0.034,57.181c0,0.807-0.029,1.617-0.105,2.419
		c-0.399,4.21-2.938,6.556-6.941,6.679c-3.804,0.116-6.426-2.085-7.086-5.96c-0.376-2.206-0.383-4.491-0.387-6.741
		c-0.029-16.8-0.273-33.604,0.1-50.396c0.17-7.706-2.037-13.804-7.854-18.848c-2.52-2.188-4.483-5.017-6.699-7.553
		c-0.49,0.207-0.98,0.416-1.469,0.624c-0.209,2.096-0.594,4.19-0.598,6.287c-0.043,23.744-0.024,47.49-0.035,71.235
		c0,1.774,0.064,3.573-0.187,5.319c-0.534,3.717-3.118,6.275-6.511,5.856c-2.533-0.313-5.164-2.599-7.005-4.67
		c-1.05-1.18-0.798-3.69-0.802-5.602c-0.044-24.392-0.003-48.782-0.039-73.172c-0.021-14.138,6.088-24.368,18.893-30.632
		c12.17-5.951,24.249-12.091,36.35-18.185c7.956-4.006,9.978-15.322,3.947-21.885c-8.996-9.788-12.781-21.471-12.556-34.599
		c0.048-2.768,0.348-5.225-3.505-6.232c-1.625-0.426-3.583-3.214-3.733-5.061c-1.007-12.416-1.548-24.941,4.266-36.508
		c8.729-17.372,23.296-25.848,42.478-26.214c8.191-0.155,16.668-0.383,24.556,1.424c22.46,5.145,35.479,22.552,36.046,46.504
		c0.08,3.391,0,6.783,0.018,10.177c0.022,4.732-0.354,9.137-6.151,10.623c-0.744,0.19-1.557,2.01-1.523,3.049
		c0.475,14.893-3.648,27.924-14.351,38.776c-3.947,4.001-1.209,16.125,3.706,18.929c2.101,1.197,4.367,2.108,6.428,3.363
		c3.572,2.176,4.858,6.147,3.287,9.577c-1.57,3.424-5.386,4.962-9.472,3.313C256.923,358.109,253.425,356.082,249.5,354.123z
		 M256.418,287.568c1.232-4.475-1.245-5.783-6.238-6.714c-9.932-1.851-20.015-3.944-29.335-7.683
		c-7.379-2.963-12.333-2.352-19.516,1.402c-8.223,4.3-8.854,9.613-8.102,16.876c0.166,1.604,0.358,3.206,0.571,4.805
		c2.06,15.438,17.735,27.729,33.23,26.06C245.218,320.353,256.173,307.7,256.418,287.568z M263.702,267.768
		c2.088-17.753-5.556-31.941-19.797-37.134c-9.832-3.583-20.08-2.672-30.187-1.818c-18.18,1.536-31.123,19.003-27.534,38.489
		c5.445-3.638,10.66-6.679,15.361-10.375c6.301-4.955,7.253-5.259,14.192-1.7C230.732,262.919,246.659,267.015,263.702,267.768z
		 M224.869,359.278c4.844-5.183,8.762-9.91,13.252-14.008c3.599-3.284,3.958-6.539,1.912-10.903
		c-10.302,3.658-20.593,3.218-32.028-0.334c0.599,3.698,0.151,7.087,1.63,8.929C214.047,348.453,219.215,353.337,224.869,359.278z"
		/>
	<path fill-rule="evenodd" clip-rule="evenodd" fill="#676767" d="M53.32,450.269c0,6.115,0.08,12.23-0.024,18.344
		c-0.086,4.979-2.826,8.112-6.958,8.284c-4.265,0.177-7.457-3.111-7.506-8.258c-0.116-12.228-0.116-24.459-0.001-36.687
		c0.049-5.228,3.104-8.369,7.48-8.229c4.154,0.131,6.896,3.223,6.984,8.203C53.402,438.038,53.32,444.154,53.32,450.269z"/>
</g>
</svg>
