<?xml version="1.0" encoding="utf-8"?>
<!-- Generator: Adobe Illustrator 16.0.0, SVG Export Plug-In . SVG Version: 6.00 Build 0)  -->
<!DOCTYPE svg PUBLIC "-//W3C//DTD SVG 1.1//EN" "http://www.w3.org/Graphics/SVG/1.1/DTD/svg11.dtd">
<svg version="1.1" id="Layer_1" xmlns="http://www.w3.org/2000/svg" xmlns:xlink="http://www.w3.org/1999/xlink" x="0px" y="0px"
	 width="512px" height="512px" viewBox="0 0 512 512" enable-background="new 0 0 512 512" xml:space="preserve">
<g>
	<path fill-rule="evenodd" clip-rule="evenodd" fill="#2DB9E5" d="M384.151,14.043c9.701,3.286,19.404,6.567,29.104,9.859
		c1.973,0.671,3.935,1.382,6.121,2.152c-1.266,9.156-2.377,18.042-3.771,26.882c-0.592,3.765,0.236,6.185,3.541,8.59
		c3.188,2.318,5.438,1.59,8.343,0.131c7.14-3.588,14.332-7.089,21.623-10.362c1.205-0.541,3.778-0.333,4.417,0.512
		c7.165,9.487,14.074,19.167,21.231,29.043c-6.734,7.053-13.135,14.012-19.849,20.652c-2.451,2.423-2.336,4.56-1.275,7.401
		c0.986,2.639,1.52,4.863,5.187,5.385c9.337,1.327,18.583,3.288,28.11,5.04c0,12.896,0,25.559,0,38.547
		c-9.374,1.73-18.615,3.634-27.93,5.049c-3.212,0.488-4.387,2.09-5.188,4.806c-0.836,2.833-1.823,5.19,0.986,7.917
		c6.782,6.581,13.141,13.599,20.006,20.795c-7.554,10.367-15.008,20.596-22.653,31.089c-8.701-4.209-17.075-8.201-25.385-12.317
		c-2.48-1.229-4.535-1.916-7.078,0.196c-2.561,2.125-4.96,3.638-4.241,7.796c1.581,9.144,2.603,18.383,3.922,28.089
		c-12.145,3.962-24.168,7.885-36.525,11.917c-4.582-8.525-9.202-16.759-13.431-25.188c-1.532-3.053-3.57-3.595-6.602-3.556
		c-3.102,0.041-5.415,0.236-7.075,3.61c-4.101,8.332-8.71,16.41-13.404,25.129c-12.097-3.934-24.115-7.839-36.545-11.879
		c1.223-8.883,2.232-17.601,3.694-26.242c0.736-4.35-0.061-7.313-4.044-9.767c-2.491-1.535-4.242-1.477-6.651-0.275
		c-8.444,4.212-16.975,8.249-25.74,12.481c-7.607-10.438-14.989-20.569-22.674-31.115c6.607-6.917,12.958-13.898,19.708-20.469
		c2.657-2.586,2.368-4.807,1.409-7.831c-0.985-3.105-2.315-4.768-5.896-5.279c-9.037-1.291-17.987-3.196-27.307-4.917
		c0-12.7,0-25.367,0-38.549c9.298-1.725,18.674-3.693,28.135-5.097c3.377-0.501,4.195-2.386,4.975-4.985
		c0.792-2.648,1.846-4.871-0.854-7.499c-6.877-6.694-13.343-13.812-20.178-20.972c7.19-9.889,14.116-19.561,21.297-29.038
		c0.636-0.838,3.218-1.017,4.43-0.469c7.877,3.56,15.607,7.443,23.42,11.145c4.256,2.015,10.705-2.395,10.158-7.101
		c-1.129-9.701-2.523-19.373-3.835-29.247c11.857-4.065,23.519-8.064,35.179-12.063c0.654,0,1.307,0,1.962,0
		c4.671,9.084,8.9,18.454,14.396,27.008c1.083,1.688,9.299,1.68,10.391-0.016c5.508-8.548,9.746-17.913,14.429-26.992
		C382.845,14.043,383.498,14.043,384.151,14.043z M447.455,68.422c-8.037,3.861-15.848,7.491-23.526,11.378
		c-2.566,1.299-4.236,1.042-6.499-0.803c-4.92-4.012-10.091-7.75-15.401-11.233c-2.28-1.496-2.954-2.823-2.473-5.514
		c1.008-5.617,1.613-11.31,2.279-16.984c1.106-9.471,1.035-9.358-8.151-12.298c-2.958-0.948-4.312-0.191-5.655,2.482
		c-3.371,6.704-6.921,13.331-10.749,19.781c-0.83,1.398-3.089,2.648-4.749,2.728c-6.506,0.313-13.041-0.028-19.552,0.211
		c-2.62,0.097-4.131-0.431-5.33-2.947c-2.387-5.002-5.186-9.808-7.815-14.692c-4.843-8.993-4.798-8.858-14.46-5.586
		c-2.881,0.976-3.3,2.488-2.891,5.061c0.742,4.674,0.743,9.544,2.076,14.03c2.559,8.608,0.356,14.253-8.064,18.041
		c-4.704,2.116-8.629,7.812-13.115,8.058c-4.717,0.257-9.685-4.059-14.539-6.389c-11.39-5.468-11.39-5.473-18.541,4.903
		c-0.164,0.237-0.172,0.582-0.357,1.253c5.831,6.115,11.704,12.459,17.81,18.57c2.061,2.063,2.214,3.675,1.152,6.376
		c-2.258,5.745-4.166,11.659-5.716,17.635c-0.78,3.005-2.02,4.166-5.105,4.638c-8.468,1.298-16.864,3.064-25.06,4.603
		c0,4.999,0,9.326,0,13.821c8.62,1.606,16.925,3.332,25.296,4.618c2.945,0.454,4.051,1.691,4.798,4.428
		c1.63,5.959,3.429,11.907,5.701,17.645c1.142,2.882,0.903,4.587-1.28,6.761c-6.107,6.081-11.957,12.42-17.951,18.703
		c2.841,3.9,5.418,7.439,8.139,11.175c7.812-3.77,15.361-7.243,22.736-11.053c2.995-1.549,5.086-1.673,7.731,0.836
		c3.297,3.122,6.847,6.406,10.913,8.192c6.689,2.937,7.146,7.399,5.873,13.605c-1.396,6.803-1.929,13.783-2.839,20.683
		c4.749,1.513,8.861,2.823,13.036,4.152c4.312-7.99,8.49-15.373,12.281-22.949c1.426-2.848,3.102-3.394,6.107-3.22
		c6.009,0.346,12.067,0.329,18.073-0.044c3.031-0.188,4.686,0.445,6.101,3.264c3.863,7.695,8.085,15.21,12.269,22.987
		c4.502-1.472,8.614-2.816,13.03-4.26c-1.181-9.054-2.464-17.755-3.317-26.498c-0.151-1.562,1.055-3.825,2.354-4.86
		c4.969-3.956,10.425-7.312,15.305-11.365c2.476-2.055,4.294-2.011,6.916-0.69c7.555,3.809,15.221,7.398,23.152,11.221
		c2.796-3.854,5.422-7.473,8.118-11.188c-6.311-6.623-12.178-12.985-18.299-19.093c-1.972-1.97-1.993-3.505-1.067-5.968
		c2.177-5.782,4.178-11.663,5.718-17.64c0.822-3.188,2.131-4.454,5.44-4.939c8.342-1.224,16.604-2.985,24.888-4.529
		c0-4.872,0-9.238,0-13.778c-8.679-1.627-17.145-3.387-25.677-4.717c-2.782-0.435-3.751-1.631-4.465-4.141
		c-1.731-6.101-3.562-12.204-5.871-18.101c-1.081-2.76-0.729-4.349,1.268-6.363c6.08-6.132,11.96-12.466,18.077-18.888
		C452.81,75.745,450.24,72.23,447.455,68.422z"/>
	<path fill-rule="evenodd" clip-rule="evenodd" fill="#2DB9E5" d="M187.513,506.515c0-16.327,0-32.656,0-49.596
		c-34.329,0-68.357,0-102.891,0c0-29.428,0-58.249,0-87.606c-20.496,0-40.493,0-61.011,0c1.216-11.406,2.355-22.231,3.528-33.054
		c3.787-34.896,7.355-69.815,11.566-104.66c0.902-7.465-0.215-13.776-4.081-19.92c-0.864-1.374-1.274-3.049-2.213-4.356
		c-8.998-12.535-8.403-26.493-6.519-40.818c4.604-35.042,17.909-66.348,40.44-93.509c21.272-25.644,47.583-44.387,79.037-55.815
		c27.388-9.95,55.577-12.854,84.364-9.535c18.542,2.138,36.41,7.167,53.937,15.524c-2.951,4.033-5.778,7.895-8.47,11.571
		c-8.756-2.833-16.987-6.01-25.48-8.153c-43.013-10.858-84.281-6.024-123.171,15.418C87.67,63.443,61.439,95.731,47.337,137.758
		c-5.223,15.559-7.737,31.687-7.892,48.123c-0.017,1.696,0.632,3.505,1.365,5.076c2.003,4.284,3.76,8.786,6.435,12.633
		c7.316,10.522,7.279,21.776,5.774,33.977c-4.6,37.26-8.395,74.622-12.474,111.948c-0.158,1.445-0.019,2.922-0.019,4.851
		c19.338,0,38.705,0,58.578,0c0,29.276,0,58.097,0,87.403c54.653,0,108.797,0,163.346,0c0,5.097,0,9.709,0,14.875
		c-19.987,0-39.827,0-60.23,0c0,16.984,0,33.428,0,49.87C197.318,506.515,192.416,506.515,187.513,506.515z"/>
	<path fill-rule="evenodd" clip-rule="evenodd" fill="#2DB9E5" d="M341.014,506.515c0.11-4.68,0.316-9.36,0.317-14.04
		c0.021-63.949,0.015-127.898,0.015-191.85c0-1.997,0-3.995,0-6.329c4.972,0,9.459,0,14.476,0c0.112,1.508,0.318,2.994,0.318,4.48
		c0.02,67.703,0.022,135.405,0.004,203.108c0,1.542-0.275,3.085-0.424,4.63C350.818,506.515,345.917,506.515,341.014,506.515z"/>
	<path fill-rule="evenodd" clip-rule="evenodd" fill="#EA9E2D" d="M277.366,408.197c-1.479-0.685-2.813-1.28-4.129-1.912
		c-3.529-1.694-7.21-3.144-10.538-5.168c-4.303-2.62-8.187-2.729-12.755-0.408c-3.002,1.524-4.938,3.127-5.896,6.424
		c-1.41,4.843-3.48,9.491-4.97,14.315c-0.803,2.599-2.031,3.644-4.839,3.585c-8.328-0.173-16.665,0.077-24.987-0.197
		c-1.425-0.048-3.487-1.558-4.065-2.903c-2.183-5.084-3.855-10.387-5.756-15.595c-1.987-5.446-10.282-8.879-15.49-6.418
		c-4.866,2.299-9.632,4.842-14.625,6.82c-1.5,0.593-4.234,0.325-5.336-0.698c-6.22-5.774-12.212-11.809-18.024-17.995
		c-0.959-1.022-1.331-3.513-0.795-4.855c1.93-4.837,4.374-9.468,6.606-14.185c3.063-6.467-0.244-14.375-7.024-16.782
		c-4.917-1.746-9.93-3.263-14.714-5.313c-1.333-0.57-2.806-2.651-2.853-4.084c-0.268-8.321,0.008-16.66-0.208-24.985
		c-0.074-2.899,1.159-4.048,3.624-4.831c4.04-1.284,7.916-3.345,12.036-4.047c6.943-1.183,8.93-6.317,10.561-11.82
		c0.395-1.332-0.238-3.172-0.865-4.569c-2.269-5.059-4.624-10.086-7.175-15.004c-1.136-2.188-1.23-3.67,0.704-5.527
		c6.123-5.884,12.14-11.886,18.01-18.022c1.87-1.954,3.353-1.79,5.493-0.68c4.775,2.479,9.657,4.75,14.518,7.062
		c5.202,2.474,13.654-0.967,15.576-6.322c1.819-5.065,3.727-10.103,5.354-15.228c0.804-2.534,1.952-3.665,4.812-3.596
		c8.326,0.201,16.664-0.066,24.985,0.205c1.423,0.045,3.492,1.535,4.055,2.869c2.218,5.247,3.92,10.711,5.88,16.07
		c1.745,4.771,10.336,8.368,14.933,6.228c5.176-2.407,10.226-5.103,15.496-7.273c1.322-0.545,3.824-0.153,4.846,0.809
		c6.188,5.813,12.029,11.992,18.151,17.878c1.923,1.849,1.87,3.33,0.731,5.532c-2.548,4.922-4.845,9.976-7.184,15.001
		c-2.137,4.592,1.389,13.251,6.123,14.975c5.209,1.896,10.432,3.763,15.704,5.477c2.495,0.812,3.639,2.014,3.568,4.873
		c-0.207,8.325,0.064,16.664-0.208,24.985c-0.047,1.419-1.564,3.479-2.907,4.046c-5.249,2.214-10.711,3.923-16.076,5.867
		c-4.816,1.743-8.391,10.237-6.229,14.883c2.409,5.175,5.057,10.245,7.278,15.497c0.535,1.265,0.403,3.634-0.443,4.529
		c-6.055,6.409-12.364,12.578-18.624,18.793C279.03,407.16,278.168,407.621,277.366,408.197z M274.199,270.007
		c-3.031,1.432-6.487,2.605-9.433,4.553c-5.751,3.799-10.619,2.199-16.978,0.473c-12.049-3.273-17.09-10.827-19.252-21.788
		c-0.743-3.763-3.462-3.313-6.01-3.149c-2.655,0.171-5.919-1.348-7.135,2.981c-1.321,4.697-2.994,9.322-4.916,13.804
		c-0.649,1.516-2.332,2.934-3.885,3.65c-5.162,2.385-10.423,4.588-15.771,6.519c-1.739,0.627-4.109,0.814-5.757,0.144
		c-5.378-2.195-10.555-4.879-15.619-7.284c-8.197,7.02-8.664,7.286-3.91,15.609c3.984,6.972,3.065,12.541,0.727,20.172
		c-3.37,11.001-10.217,15.238-19.891,17.441c-3.834,0.872-4.545,2.92-4.7,6.523c-0.192,4.472,0.939,7.035,5.605,7.893
		c2.69,0.496,5.169,2.105,7.858,2.637c4.919,0.973,7.113,3.852,8.474,8.593c1.553,5.413,6.153,10.546,5.991,15.691
		c-0.172,5.392-4.49,10.626-6.833,16c-0.444,1.021-0.591,2.644-0.082,3.529c3.265,5.67,6.585,6.563,12.598,3.698
		c1.325-0.632,2.785-1.074,3.953-1.92c5.663-4.096,10.655-2.142,16.964-0.402c11.749,3.238,16.792,10.549,19.168,21.325
		c0.283,1.279,1.666,2.984,2.848,3.284c6.71,1.712,9.189,0.22,11.483-6.315c0.54-1.538,1.314-3.037,1.577-4.62
		c1.049-6.315,5.505-8.33,10.745-11.319c10.938-6.239,20.262-4.825,30.023,1.487c0.937,0.605,2.929,0.632,3.853,0.032
		c6.06-3.93,6.567-6.105,3.453-12.642c-0.701-1.472-1.218-3.077-2.145-4.389c-3.704-5.242-2.027-9.833-0.337-15.669
		c3.41-11.766,10.442-17.755,21.894-19.92c1.227-0.231,2.876-1.763,3.143-2.955c1.539-6.87,0.433-9.325-6.169-11.016
		c-8.881-2.276-16.088-5.748-17.074-16.136c-0.043-0.451-0.359-0.924-0.656-1.301c-5.058-6.407-4.271-12.754,0.161-19.076
		c0.093-0.133,0.173-0.277,0.242-0.425c4.299-8.98,4.299-8.981-3.468-15.433C274.821,270.189,274.637,270.169,274.199,270.007z"/>
	<path fill-rule="evenodd" clip-rule="evenodd" fill="#2DB9E5" d="M411.001,416.42c-4.802,0-9.285,0-14.105,0
		c0-46.189,0-92.104,0-138.314c4.674,0,9.178,0,14.105,0C411.001,324.002,411.001,369.916,411.001,416.42z"/>
	<path fill-rule="evenodd" clip-rule="evenodd" fill="#EA9E2D" d="M470.026,373.002c-4.671,0-9.179,0-14.06,0
		c0-44.343,0-88.657,0-133.22c4.655,0,9.167,0,14.06,0C470.026,284.092,470.026,328.396,470.026,373.002z"/>
	<path fill-rule="evenodd" clip-rule="evenodd" fill="#2DB9E5" d="M470.263,388.424c0,4.854,0,9.221,0,14.065
		c-4.693,0-9.279,0-14.27,0c0-4.502,0-9.102,0-14.065C460.617,388.424,465.231,388.424,470.263,388.424z"/>
	<path fill-rule="evenodd" clip-rule="evenodd" fill="#EA9E2D" d="M455.896,417.976c4.939,0,9.444,0,14.214,0
		c0,4.76,0,9.261,0,14.122c-4.706,0-9.325,0-14.214,0C455.896,427.4,455.896,422.907,455.896,417.976z"/>
	<path fill-rule="evenodd" clip-rule="evenodd" fill="#EA9E2D" d="M411.137,446.093c-4.893,0-9.256,0-14.077,0
		c0-4.75,0-9.347,0-14.287c4.579,0,9.186,0,14.077,0C411.137,436.579,411.137,441.066,411.137,446.093z"/>
	<path fill-rule="evenodd" clip-rule="evenodd" fill="#2DB9E5" d="M470.068,461.833c-4.913,0-9.271,0-14.033,0
		c0-4.72,0-9.313,0-14.264c4.521,0,9.121,0,14.033,0C470.068,452.22,470.068,456.817,470.068,461.833z"/>
	<path fill-rule="evenodd" clip-rule="evenodd" fill="#2DB9E5" d="M396.848,475.454c0-4.97,0-9.475,0-14.234
		c4.794,0,9.306,0,14.178,0c0,4.725,0,9.345,0,14.234C406.306,475.454,401.816,475.454,396.848,475.454z"/>
	<path fill-rule="evenodd" clip-rule="evenodd" fill="#EA9E2D" d="M396.937,490.75c4.735,0,9.333,0,14.189,0
		c0,4.754,0,9.229,0,14.083c-4.675,0-9.259,0-14.189,0C396.937,500.219,396.937,495.626,396.937,490.75z"/>
	<path fill-rule="evenodd" clip-rule="evenodd" fill="#EA9E2D" d="M362.672,195.248c-31.052,0.072-56.872-25.774-56.722-56.778
		c0.152-31.032,25.479-56.315,56.535-56.434c31.048-0.117,56.915,25.751,56.729,56.74
		C419.032,169.772,393.595,195.177,362.672,195.248z M362.586,96.859c-22.735-0.006-41.822,19.065-41.801,41.769
		c0.02,22.703,19.135,41.817,41.805,41.806c22.741-0.011,41.757-19.03,41.791-41.797C404.416,115.942,385.33,96.863,362.586,96.859z
		"/>
	<path fill-rule="evenodd" clip-rule="evenodd" fill="#2DB9E5" d="M221.364,366.916c-20.47-0.609-36.987-17.532-36.336-37.23
		c0.677-20.423,17.488-36.886,37.242-36.467c20.354,0.431,37.303,17.9,36.53,37.653
		C257.995,351.462,241.327,367.512,221.364,366.916z M221.723,352.143c12.302,0.1,22.146-9.571,22.27-21.881
		c0.123-12.042-10.028-22.271-22.076-22.246c-11.874,0.025-21.788,9.83-22.055,21.811
		C199.591,341.939,209.489,352.045,221.723,352.143z"/>
	<path fill-rule="evenodd" clip-rule="evenodd" fill="#2DB9E5" d="M362.669,116.621c12.227,0.045,22.084,9.937,22.007,22.08
		c-0.077,12.091-10.175,22.126-22.18,22.044c-12.121-0.084-22.053-10.101-22.005-22.195
		C340.539,126.401,350.479,116.574,362.669,116.621z M362.399,131.464c-4.018,0.065-7.016,3.152-6.976,7.183
		c0.042,4.041,3.056,7.077,7.072,7.125c4.234,0.05,7.378-3.193,7.215-7.443C369.558,134.307,366.459,131.399,362.399,131.464z"/>
	<path fill-rule="evenodd" clip-rule="evenodd" fill="#EA9E2D" d="M215.4,322.643c4.958,0,9.448,0,14.163,0c0,4.75,0,9.239,0,14.101
		c-4.627,0-9.229,0-14.163,0C215.4,332.125,215.4,327.527,215.4,322.643z"/>
</g>
</svg>
