<?xml version="1.0" encoding="utf-8"?>
<!-- Generator: Adobe Illustrator 16.0.0, SVG Export Plug-In . SVG Version: 6.00 Build 0)  -->
<!DOCTYPE svg PUBLIC "-//W3C//DTD SVG 1.1//EN" "http://www.w3.org/Graphics/SVG/1.1/DTD/svg11.dtd">
<svg version="1.1" id="Layer_1" xmlns="http://www.w3.org/2000/svg" xmlns:xlink="http://www.w3.org/1999/xlink" x="0px" y="0px"
	 width="512px" height="512px" viewBox="0 0 512 512" enable-background="new 0 0 512 512" xml:space="preserve">
<g>
	<path fill-rule="evenodd" clip-rule="evenodd" fill="#676767" d="M253.765,503.057c-55.878,0.002-111.756,0.016-167.635-0.007
		c-20.463-0.008-30.006-9.444-29.822-29.95c0.127-14.089-0.558-28.38,1.558-42.209c3.658-23.919,18.546-39.353,41.652-46.043
		c18.032-5.223,36.519-8.874,54.539-14.139c6.257-1.826,11.956-6.035,17.475-9.796c7.11-4.85,13.66-10.512,20.692-15.483
		c3.926-2.773,4.975-14.024,0.35-17.504c-4.334-3.262-9.696-5.425-14.9-7.215c-20.684-7.108-41.681-13.355-62.139-21.047
		c-7.722-2.903-14.701-8.35-21.295-13.553c-8.292-6.543-12.001-15.385-11.846-26.362c0.761-53.658,6.003-106.541,28.918-155.925
		c22.639-48.787,58.253-83.325,112.661-93.44c65.771-12.227,118.482,10.201,157.173,64.484
		c22.878,32.1,33.895,69.127,39.242,107.622c3.441,24.775,3.932,49.95,6.117,74.912c1.344,15.376-6.089,25.768-17.978,33.802
		c-20.861,14.098-44.634,21.03-68.607,27.383c-5.145,1.362-10.443,2.206-15.495,3.838c-8.554,2.766-12.439,9.495-10.577,18.16
		c0.386,1.792,1.937,3.645,3.451,4.835c5.802,4.563,12.554,8.16,17.562,13.437c6.792,7.159,14.446,11.311,24.038,13.332
		c15.927,3.354,31.7,7.452,47.47,11.507c28.606,7.354,46.187,30.13,46.33,59.755c0.051,10.674,0.086,21.348-0.011,32.019
		c-0.157,17.367-10.159,27.525-27.524,27.556C368.029,503.114,310.898,503.057,253.765,503.057z M378.811,287.582
		c0.691,0.608,1.384,1.216,2.075,1.824c5.129-2.653,10.31-5.206,15.374-7.978c11.149-6.104,17.1-14.744,15.671-28.282
		c-2.304-21.805-2.743-43.839-5.73-65.533c-4.82-35.001-14.544-68.623-33.607-98.912c-34.216-54.368-94.896-78.814-155.29-61.876
		c-47.478,13.317-77.075,46.319-95.659,90.325c-19.381,45.893-23.722,94.528-24.278,143.647c-0.051,4.418,2.563,10.146,5.872,13.11
		c17.255,15.451,38.898,21.534,61.578,28.129c-6.399-12.184-13.376-22.482-17.321-33.834c-3.87-11.14-9.061-15.749-21.28-14.974
		c-12.447,0.789-17.378-5.409-17.516-17.968c-0.128-11.612-0.061-23.226-0.031-34.84c0.044-16.65,3.906-20.896,20.923-21.793
		c5.026-0.265,6.687-1.93,7.87-6.888c2.752-11.535,6.505-22.841,10.127-34.151c2.368-7.388,7.361-8.336,14.112-5.389
		c9.75,4.254,19.479,8.722,29.578,11.971c62.299,20.043,125.937,32.889,191.521,35.528c5.177,0.208,14.409,4.359,14.586,7.134
		c1.256,19.708,0.64,39.537,0.621,59.326C386.25,257.719,389.421,275.544,378.811,287.582z M304.855,317.311
		c-0.14-1.441-0.279-2.883-0.419-4.324c-9.056,0-18.12,0.266-27.16-0.095c-5.813-0.231-12.157-0.108-17.271-2.378
		c-10.679-4.742-15.178-17.286-11.687-28.678c3.47-11.31,15.303-18.683,27.151-16.914c11.54,1.722,20.293,11.473,21.011,23.158
		c0.203,3.287-0.221,7.74,1.666,9.591c6.035,5.909,26.117,3.342,31.349-3.385c19.306-24.831,28.741-53.23,29.913-84.438
		c0.599-15.916,0.3-15.91-15.734-17.822c-3.109-0.371-6.186-1.02-9.294-1.389c-54.243-6.438-107.317-18.014-158.894-36.16
		c-5.179-1.822-10.26-3.924-15.843-6.073c-1.59,4.185-3.03,7.292-3.967,10.544c-8.528,29.64-9.025,59.487,0.048,88.936
		c11.185,36.308,31.58,65.68,68.459,79.793C252.703,338.591,279.86,334.132,304.855,317.311z M99.002,400.097
		c8.135,9.753,14.551,18.655,22.189,26.342c14.375,14.462,22.006,31.03,19.118,51.648c-1.198,8.533,2.708,10.553,10.716,10.523
		c69.011-0.258,138.023-0.267,207.035,0.009c8.189,0.033,11.702-2.303,10.595-10.663c-2.675-20.174,4.396-36.618,18.596-50.889
		c7.855-7.896,14.397-17.098,22.665-27.079c-19.91-4.925-38.198-8.927-56.14-14.138c-7.521-2.185-11.402-0.23-15.479,5.8
		c-8.779,12.981-18.098,25.604-27.385,38.236c-8.048,10.942-16.324,12.02-27.216,3.775c-6.602-4.998-13.096-10.137-21.575-16.713
		c0,5.884,0.003,9.225,0,12.565c-0.01,9.723,0.579,19.506-0.363,29.141c-0.323,3.307-4.023,8.268-6.97,8.921
		c-5.938,1.325-7.8-3.837-7.888-9.019c-0.14-8.468,0.019-16.94-0.092-25.408c-0.063-4.711-0.416-9.419-0.721-15.878
		c-8.159,6.431-14.463,11.556-20.932,16.461c-10.854,8.232-19.066,7.08-27.185-3.949c-8.92-12.124-18.071-24.114-26.25-36.729
		c-4.86-7.493-9.757-9.484-18.518-6.854C135.938,391.379,118.281,395.239,99.002,400.097z M84.844,406.452
		c-4.845,9.96-10.863,17.524-12.022,25.774c-2.078,14.791-1.49,29.993-1.5,45.023c-0.005,7.112,4.668,10.88,11.563,11.032
		c12.229,0.271,24.472,0.255,36.698-0.034c2.019-0.049,5.78-2.241,5.705-3.205c-0.88-11.375,0.878-24.56-4.361-33.629
		C112,435.954,98.586,423.086,84.844,406.452z M422.405,408.686c-8.567,10.198-15.938,20.468-24.824,29.19
		c-12.31,12.08-15.969,26.225-14.595,42.755c0.457,5.486,1.873,7.99,7.617,7.874c11.291-0.228,22.591-0.044,33.886-0.088
		c8.815-0.037,13.368-4.487,13.393-13.342c0.027-10.981,0.291-21.975-0.136-32.94C437.257,429.584,433.693,418.149,422.405,408.686z
		 M254.482,391.197c13.047-11.098,25.163-21.944,37.892-32.021c6.976-5.521,8.08-11.626,5.38-20.4
		c-29.084,12.707-57.95,12.333-87.981,0.978c0.526,6.135,0.601,12.976,4.056,16.286
		C226.448,368.121,240.196,379.027,254.482,391.197z M212.665,424.625c10.491-8.332,19.736-15.673,30.018-23.836
		c-16.6-14.118-32.372-27.536-47.953-40.791c-6.286,5.827-11.52,10.678-17.175,15.919
		C189.387,392.333,200.668,407.982,212.665,424.625z M314.491,359.754c-16.258,13.83-31.854,27.099-48.239,41.035
		c10.619,8.43,20.018,15.893,30.036,23.846c12.101-16.785,23.368-32.418,34.585-47.978
		C325.269,370.873,320.304,365.751,314.491,359.754z M136.633,238.101c-0.701-13.945-1.144-26.687-2.204-39.375
		c-0.147-1.749-3.264-4.408-5.144-4.531c-1.907-0.125-5.681,2.313-5.729,3.725c-0.444,13.272-0.263,26.566-0.263,40.182
		C128.533,238.101,132.428,238.101,136.633,238.101z M375.018,194.76c-0.979,14.822-1.899,28.728-2.85,43.137
		c4.432,0,8.545,0,13.07,0c0-14.684,0-28.613,0-43.137C381.739,194.76,378.773,194.76,375.018,194.76z M349.996,293.684
		c13.509-5.239,24.797-23.317,24.352-40.367c-2.939,1.161-6.921,1.472-7.797,3.285C360.675,268.754,355.464,281.226,349.996,293.684
		z M285.72,288.849c-6.534-4.361-10.091-8.553-14.012-8.927c-5.788-0.552-10.633,4.004-8.899,10.009
		c1.024,3.549,6.183,8.026,9.631,8.155C275.881,298.218,279.507,293.444,285.72,288.849z"/>
</g>
</svg>
