<?xml version="1.0" encoding="utf-8"?>
<!-- Generator: Adobe Illustrator 16.0.0, SVG Export Plug-In . SVG Version: 6.00 Build 0)  -->
<!DOCTYPE svg PUBLIC "-//W3C//DTD SVG 1.1//EN" "http://www.w3.org/Graphics/SVG/1.1/DTD/svg11.dtd">
<svg version="1.1" id="Layer_1" xmlns="http://www.w3.org/2000/svg" xmlns:xlink="http://www.w3.org/1999/xlink" x="0px" y="0px"
	 width="512px" height="512px" viewBox="0 0 512 512" enable-background="new 0 0 512 512" xml:space="preserve">
<g>
	<path fill="#F9F9FA" d="M443.533,269.34c0,103.649-84.026,187.681-187.682,187.681c-103.654,0-187.681-84.031-187.681-187.681
		c0-103.653,84.027-187.682,187.681-187.682C359.507,81.658,443.533,165.687,443.533,269.34z"/>
	<circle fill="#F9F9FA" cx="29.431" cy="388.323" r="16.354"/>
	<path fill="#F9F9FA" d="M173.753,58.106c0,5.105-4.139,9.246-9.247,9.246c-5.103,0-9.243-4.14-9.243-9.246
		c0-5.107,4.14-9.246,9.243-9.246C169.614,48.86,173.753,52.999,173.753,58.106z"/>
	<path fill="#F9F9FA" d="M101.241,444.133c0,18.648-15.117,33.775-33.775,33.775c-18.645,0-33.769-15.127-33.769-33.775
		c0-18.652,15.125-33.77,33.769-33.77C86.124,410.363,101.241,425.48,101.241,444.133z"/>
	<path fill="#F9F9FA" d="M459.536,166.163c0,9.423-7.639,17.067-17.062,17.067c-9.422,0-17.062-7.644-17.062-17.067
		c0-9.424,7.64-17.063,17.062-17.063C451.897,149.1,459.536,156.739,459.536,166.163z"/>
	<path fill="#F9F9FA" d="M117.969,56.155H99.84V38.026c0-2.345-1.92-4.265-4.265-4.265H81.712c-2.345,0-4.266,1.92-4.266,4.265
		v18.129H59.318c-2.345,0-4.265,1.92-4.265,4.266v13.862c0,2.346,1.92,4.266,4.265,4.266h18.128v18.128
		c0,2.345,1.921,4.266,4.266,4.266h13.863c2.345,0,4.265-1.921,4.265-4.266V78.548h18.128c2.345,0,4.266-1.92,4.266-4.266V60.42
		C122.234,58.075,120.314,56.155,117.969,56.155z"/>
	<path fill="#F9F9FA" d="M439.326,102.367h-11.988V90.378c0-1.551-1.276-2.822-2.824-2.822h-9.172c-1.551,0-2.816,1.271-2.816,2.822
		v11.988h-11.997c-1.55,0-2.816,1.27-2.816,2.822v9.168c0,1.552,1.267,2.822,2.816,2.822h11.997v11.99
		c0,1.55,1.266,2.821,2.816,2.821h9.172c1.548,0,2.824-1.271,2.824-2.821v-11.99h11.988c1.549,0,2.814-1.271,2.814-2.822v-9.168
		C442.141,103.637,440.875,102.367,439.326,102.367z"/>
	<path fill="#F9F9FA" d="M81.254,385.19h-6.237v-6.231c0-0.809-0.657-1.467-1.465-1.467h-4.77c-0.804,0-1.465,0.658-1.465,1.467
		v6.231H61.08c-0.804,0-1.465,0.663-1.465,1.468v4.772c0,0.804,0.662,1.466,1.465,1.466h6.237v6.231
		c0,0.809,0.662,1.467,1.465,1.467h4.77c0.808,0,1.465-0.658,1.465-1.467v-6.231h6.237c0.808,0,1.466-0.662,1.466-1.466v-4.772
		C82.72,385.854,82.063,385.19,81.254,385.19z"/>
	<path fill="#F9F9FA" d="M494.303,399.708h-20.049v-20.044c0-2.592-2.12-4.718-4.72-4.718H454.21c-2.596,0-4.721,2.126-4.721,4.718
		v20.044h-20.043c-2.597,0-4.721,2.124-4.721,4.719v15.33c0,2.589,2.124,4.715,4.721,4.715h20.043v20.044
		c0,2.596,2.125,4.72,4.721,4.72h15.324c2.6,0,4.72-2.124,4.72-4.72v-20.044h20.049c2.586,0,4.711-2.126,4.711-4.715v-15.33
		C499.014,401.832,496.889,399.708,494.303,399.708z"/>
	<g>
		<rect x="150.623" y="164.105" fill="#FFFFFF" width="210.458" height="210.467"/>
		<rect x="164.652" y="255.31" fill="#2DB9E5" width="112.245" height="98.212"/>
		<rect x="164.652" y="311.433" fill="#FFFFFF" width="112.245" height="42.089"/>
		<rect x="290.925" y="164.105" fill="#2DB9E5" width="70.155" height="210.467"/>
		<g>
			<rect x="150.623" y="164.105" fill="#EA9E2D" width="210.458" height="28.063"/>
			<path fill="#EA9E2D" d="M220.773,213.213c23.249,0,42.094,18.845,42.094,42.096c0,23.247-18.845,42.09-42.094,42.09
				c-23.247,0-42.091-18.843-42.091-42.09C178.682,232.058,197.526,213.213,220.773,213.213z"/>
		</g>
		<polygon fill="#FFFFFF" points="206.745,272.847 206.745,237.769 241.822,255.31 		"/>
		<path fill="#FAA831" d="M220.773,321.953c5.811,0,10.522,4.716,10.522,10.521c0,5.816-4.711,10.524-10.522,10.524
			c-5.811,0-10.522-4.708-10.522-10.524C210.251,326.669,214.963,321.953,220.773,321.953z"/>
		<g>
			<rect x="311.974" y="206.203" fill="#FFFFFF" width="28.063" height="28.055"/>
			<rect x="311.974" y="262.32" fill="#FFFFFF" width="28.063" height="28.067"/>
			<rect x="311.974" y="318.447" fill="#FFFFFF" width="28.063" height="28.062"/>
		</g>
		<path fill="#243148" d="M147.115,160.599V378.08h217.474V160.599H147.115z M357.574,167.613v21.044H154.125v-21.044H357.574z
			 M154.125,195.676h133.293v175.389H154.125V195.676z M294.438,371.065V195.676h63.137v175.389H294.438z"/>
		<path fill="#243148" d="M266.199,251.807c-1.804-23.51-21.465-42.096-45.426-42.096c-23.96,0-43.621,18.586-45.417,42.096h-14.212
			v105.22h119.259v-105.22H266.199z M220.773,216.725c21.273,0,38.59,17.312,38.59,38.585c0,21.272-17.317,38.586-38.59,38.586
			c-21.272,0-38.584-17.313-38.584-38.586C182.189,234.037,199.501,216.725,220.773,216.725z M175.357,258.813
			c1.795,23.511,21.457,42.097,45.417,42.097c23.96,0,43.622-18.586,45.426-42.097h7.189v49.107H168.155v-49.107H175.357z
			 M168.155,350.021v-35.083h105.234v35.083H168.155z"/>
		<path fill="#243148" d="M203.236,232.095v46.428l46.43-23.214L203.236,232.095z M210.251,243.443l23.728,11.867l-23.728,11.864
			V243.443z"/>
		<path fill="#243148" d="M220.773,321.953c-4.565,0-8.426,2.941-9.88,7.02h-35.72v7.011h35.72c1.454,4.074,5.314,7.016,9.88,7.016
			c4.57,0,8.427-2.941,9.882-7.016h35.718v-7.011h-35.718C229.201,324.895,225.343,321.953,220.773,321.953z M220.773,335.983
			c-1.932,0-3.507-1.575-3.507-3.509c0-1.931,1.575-3.502,3.507-3.502c1.937,0,3.507,1.571,3.507,3.502
			C224.281,334.408,222.71,335.983,220.773,335.983z"/>
		<path fill="#243148" d="M308.471,237.769h35.073v-35.073h-35.073V237.769z M315.48,209.71h21.05v21.048h-21.05V209.71z"/>
		<rect x="308.471" y="244.784" fill="#FFFFFF" width="21.043" height="7.022"/>
		<path fill="#243148" d="M308.471,293.896h35.073v-35.083h-35.073V293.896z M315.48,265.832h21.05v21.039h-21.05V265.832z"/>
		<rect x="308.471" y="300.909" fill="#FFFFFF" width="21.043" height="7.011"/>
		<path fill="#243148" d="M308.471,350.021h35.073v-35.083h-35.073V350.021z M315.48,321.953h21.05v21.046h-21.05V321.953z"/>
		<rect x="308.471" y="357.026" fill="#FFFFFF" width="21.043" height="7.021"/>
		<rect x="161.145" y="174.632" fill="#FFFFFF" width="7.01" height="7.02"/>
		<rect x="175.174" y="174.632" fill="#FFFFFF" width="7.015" height="7.02"/>
		<rect x="189.203" y="174.632" fill="#FFFFFF" width="7.02" height="7.02"/>
		<rect x="336.53" y="244.784" fill="#FFFFFF" width="7.014" height="7.022"/>
		<rect x="336.53" y="300.909" fill="#FFFFFF" width="7.014" height="7.011"/>
		<rect x="336.53" y="357.026" fill="#FFFFFF" width="7.014" height="7.021"/>
	</g>
</g>
</svg>
