<?xml version="1.0" encoding="utf-8"?>
<!-- Generator: Adobe Illustrator 16.0.0, SVG Export Plug-In . SVG Version: 6.00 Build 0)  -->
<!DOCTYPE svg PUBLIC "-//W3C//DTD SVG 1.1//EN" "http://www.w3.org/Graphics/SVG/1.1/DTD/svg11.dtd">
<svg version="1.1" id="Layer_1" xmlns="http://www.w3.org/2000/svg" xmlns:xlink="http://www.w3.org/1999/xlink" x="0px" y="0px"
	 width="512px" height="512px" viewBox="0 0 512 512" enable-background="new 0 0 512 512" xml:space="preserve">
<path fill="#F9F9FA" d="M443.533,269.34c0,103.649-84.026,187.681-187.682,187.681c-103.654,0-187.681-84.031-187.681-187.681
	c0-103.653,84.027-187.682,187.681-187.682C359.507,81.658,443.533,165.687,443.533,269.34z"/>
<circle fill="#F9F9FA" cx="29.431" cy="388.323" r="16.354"/>
<path fill="#F9F9FA" d="M173.753,58.106c0,5.105-4.139,9.246-9.247,9.246c-5.103,0-9.243-4.14-9.243-9.246
	c0-5.107,4.14-9.246,9.243-9.246C169.614,48.86,173.753,52.999,173.753,58.106z"/>
<path fill="#F9F9FA" d="M101.241,444.133c0,18.648-15.117,33.775-33.775,33.775c-18.645,0-33.769-15.127-33.769-33.775
	c0-18.652,15.125-33.77,33.769-33.77C86.124,410.363,101.241,425.48,101.241,444.133z"/>
<path fill="#F9F9FA" d="M459.536,166.163c0,9.423-7.639,17.067-17.062,17.067c-9.422,0-17.062-7.644-17.062-17.067
	c0-9.424,7.64-17.063,17.062-17.063C451.897,149.1,459.536,156.739,459.536,166.163z"/>
<path fill="#F9F9FA" d="M117.969,56.155H99.84V38.026c0-2.345-1.92-4.265-4.265-4.265H81.712c-2.345,0-4.266,1.92-4.266,4.265
	v18.129H59.318c-2.345,0-4.265,1.92-4.265,4.266v13.862c0,2.346,1.92,4.266,4.265,4.266h18.128v18.128
	c0,2.345,1.921,4.266,4.266,4.266h13.863c2.345,0,4.265-1.921,4.265-4.266V78.548h18.128c2.345,0,4.266-1.92,4.266-4.266V60.42
	C122.234,58.075,120.314,56.155,117.969,56.155z"/>
<path fill="#F9F9FA" d="M439.326,102.367h-11.988V90.378c0-1.551-1.276-2.822-2.824-2.822h-9.172c-1.551,0-2.816,1.271-2.816,2.822
	v11.988h-11.997c-1.55,0-2.816,1.27-2.816,2.822v9.168c0,1.552,1.267,2.822,2.816,2.822h11.997v11.99
	c0,1.55,1.266,2.821,2.816,2.821h9.172c1.548,0,2.824-1.271,2.824-2.821v-11.99h11.988c1.549,0,2.814-1.271,2.814-2.822v-9.168
	C442.141,103.637,440.875,102.367,439.326,102.367z"/>
<path fill="#F9F9FA" d="M81.254,385.19h-6.237v-6.231c0-0.809-0.657-1.467-1.465-1.467h-4.77c-0.804,0-1.465,0.658-1.465,1.467
	v6.231H61.08c-0.804,0-1.465,0.663-1.465,1.468v4.772c0,0.804,0.662,1.466,1.465,1.466h6.237v6.231c0,0.809,0.662,1.467,1.465,1.467
	h4.77c0.808,0,1.465-0.658,1.465-1.467v-6.231h6.237c0.808,0,1.466-0.662,1.466-1.466v-4.772
	C82.72,385.854,82.063,385.19,81.254,385.19z"/>
<path fill="#F9F9FA" d="M494.303,399.708h-20.049v-20.044c0-2.592-2.12-4.718-4.72-4.718H454.21c-2.596,0-4.721,2.126-4.721,4.718
	v20.044h-20.043c-2.597,0-4.721,2.124-4.721,4.719v15.33c0,2.589,2.124,4.715,4.721,4.715h20.043v20.044
	c0,2.596,2.125,4.72,4.721,4.72h15.324c2.6,0,4.72-2.124,4.72-4.72v-20.044h20.049c2.586,0,4.711-2.126,4.711-4.715v-15.33
	C499.014,401.832,496.889,399.708,494.303,399.708z"/>
<g>
	<path fill="#EA9E2D" d="M236.726,224.76c-7.897,0-14.316-6.419-14.316-14.316c0-7.893,6.419-14.313,14.316-14.313
		c7.893,0,14.316,6.42,14.316,14.313C251.042,218.341,244.618,224.76,236.726,224.76z"/>
	<path fill="#EA9E2D" d="M276.094,210.443c-7.897,0-14.316-6.419-14.316-14.313c0-7.896,6.419-14.316,14.316-14.316
		c7.896,0,14.316,6.42,14.316,14.316C290.41,204.024,283.99,210.443,276.094,210.443z"/>
	<rect x="225.986" y="174.652" fill="#2DB9E5" width="7.158" height="17.897"/>
	<rect x="240.303" y="171.075" fill="#2DB9E5" width="7.158" height="21.475"/>
	<rect x="265.358" y="163.917" fill="#2DB9E5" width="7.158" height="14.316"/>
	<rect x="279.675" y="160.336" fill="#2DB9E5" width="7.158" height="17.897"/>
	<path fill="#EA9E2D" d="M287.58,296.396c0,2.533-2.051,4.579-4.58,4.579h-14.495c-2.533,0-4.584-2.046-4.584-4.579l0,0
		c0-2.534,2.051-4.58,4.584-4.58H283C285.529,291.815,287.58,293.861,287.58,296.396L287.58,296.396z"/>
	<path fill="#EA9E2D" d="M288.205,282.055c0,2.533-2.051,4.58-4.58,4.58H269.13c-2.533,0-4.584-2.047-4.584-4.58l0,0
		c0-2.534,2.051-4.584,4.584-4.584h14.495C286.154,277.471,288.205,279.521,288.205,282.055L288.205,282.055z"/>
	<path fill="#EA9E2D" d="M288.205,253.714c0,2.529-1.376,4.58-3.073,4.58h-9.725c-1.697,0-3.073-2.051-3.073-4.58l0,0
		c0-2.534,1.376-4.584,3.073-4.584h9.725C286.829,249.13,288.205,251.18,288.205,253.714L288.205,253.714z"/>
	<path fill="#EA9E2D" d="M287.58,267.709c0,2.53-1.645,4.58-3.679,4.58h-11.637c-2.03,0-3.679-2.05-3.679-4.58l0,0
		c0-2.529,1.648-4.584,3.679-4.584h11.637C285.936,263.125,287.58,265.18,287.58,267.709L287.58,267.709z"/>
	<path fill="#2DB9E5" d="M289.776,300.122c-3.662,1.795-7.511,3.135-11.689,3.265c-4.486,0.146-9.676,1.186-13.212-2.354
		c-3.553-3.549-1.912-11.247-1.912-15.714c0-6.11,1.133-13.216-0.788-19.074c-0.142-0.435-0.231-0.85-0.28-1.251h-13.902
		c-1.575,1.904-3.357,3.638-4.933,5.595c-1.328,1.652-2.188,3.614-3.176,5.465c-0.45,0.841-0.934,1.734-1.466,2.623v13.61
		c-12.729,7.495-21.316,21.625-21.316,37.833c0,24.037,18.873,43.526,42.154,43.526s42.153-19.489,42.153-43.526
		C301.409,318.482,296.979,307.926,289.776,300.122z"/>
	<path fill="#183651" d="M361.209,210.443h-17.114v7.158h7.288l-22.295,30.655l-17.467-13.976l-17.768,17.768
		c-0.67-5.278-5.141-9.392-10.602-9.392h-0.991l14.316-25.056h-80.535l13.505,22.201l-12.015,10.014h-70.283v7.153h72.874
		l21.016-17.512l22.137,6.326l7.531,9.407c0.995,1.247,1.438,2.806,1.234,4.39c-0.203,1.583-1.015,2.984-2.294,3.942
		c-2.306,1.733-5.595,1.494-7.637-0.544l-7.224-7.224l-20.395,16.318l2.1,2.619c-0.683,9.059-4.771,17.869-11.768,25.063
		c-0.048,0.057-0.093,0.114-0.146,0.163h-1.421l-7.158-3.582h-68.851v7.163h67.157l5.262,2.631
		c-4.296,6.317-6.938,13.569-7.719,21.219l-14.596-14.593l-52.638,52.638l5.063,5.059l47.574-47.578l14.641,14.642
		c2.664,22.169,21.649,40.196,44.281,41.105c0.649,0.024,1.299,0.041,1.945,0.041c12.079,0,23.451-4.563,32.201-12.969
		c9.226-8.859,14.305-20.771,14.305-33.562c0-11.572-4.247-22.453-11.917-30.996c0.727-1.445,1.178-3.062,1.178-4.791
		c0-2.761-1.076-5.254-2.79-7.163c1.718-1.899,2.79-4.393,2.79-7.153c0-2.766-1.076-5.259-2.79-7.163
		c1.718-1.904,2.79-4.396,2.79-7.158c0-1.652-0.402-3.199-1.076-4.596l19.237-19.237l18.32,14.653l26.33-36.201l1.722,6.882
		l6.943-1.741L361.209,210.443z M283.252,249.816c1.973,0,3.581,1.607,3.581,3.576c0,1.974-1.608,3.577-3.581,3.577h-4.198
		c-0.325-2.257-1.19-4.409-2.659-6.244l-0.731-0.909H283.252z M269.942,242.657l-2.501-3.126l-27.976-7.994l-4.36,3.634
		l-6.33-10.411h55.467l-10.224,17.897H269.942z M274.039,269.248c1.803-1.348,3.131-3.122,4.02-5.115h5.193
		c1.973,0,3.581,1.607,3.581,3.576c0,1.974-1.608,3.582-3.581,3.582h-13.298C271.396,270.864,272.784,270.19,274.039,269.248z
		 M268.936,278.449h14.316c1.973,0,3.581,1.604,3.581,3.581c0,1.973-1.608,3.581-3.581,3.581h-14.316
		c-1.974,0-3.581-1.608-3.581-3.581C265.354,280.057,266.962,278.449,268.936,278.449z M268.936,292.766h14.316
		c1.973,0,3.581,1.607,3.581,3.581c0,1.973-1.608,3.581-3.581,3.581h-14.316c-1.974,0-3.581-1.608-3.581-3.581
		C265.354,294.373,266.962,292.766,268.936,292.766z M297.568,332.134c0,10.816-4.3,20.902-12.1,28.397
		c-7.8,7.486-18.012,11.353-28.901,10.938c-20.435-0.819-37.362-18.141-37.731-38.612c-0.191-10.549,3.756-20.537,11.117-28.105
		c8.538-8.778,13.374-19.717,13.841-30.951l10.561-8.449l2.692,2.688c0.406,0.406,0.853,0.739,1.291,1.076
		c0.293,2.2,1.234,4.178,2.651,5.749c-1.718,1.904-2.789,4.401-2.789,7.158c0,2.762,1.076,5.254,2.789,7.162
		c-1.718,1.9-2.789,4.402-2.789,7.154c0,2.704,1.031,5.141,2.684,7.033c0.065,0.023,0.126,0.064,0.183,0.138
		c0.235,0.292,0.581,0.414,0.768,0.755c0.016,0.033,0.016,0.065,0.028,0.098c1.892,1.673,4.353,2.721,7.073,2.721h14.316
		c1.575,0,3.062-0.357,4.413-0.975C294.044,313.302,297.568,322.438,297.568,332.134z"/>
	<path fill="#FFFFFF" d="M274.011,329.146v-1.584c0-6.106-4.966-11.068-11.068-11.068h-1.583v-3.971v-1.193v-1.161h-1.215h-0.479
		h-4.633v6.317h-1.58c-6.103,0-11.068,4.97-11.068,11.068c0,6.106,4.966,11.076,11.068,11.076h9.489
		c2.614,0,4.742,2.128,4.742,4.742c0,2.615-2.128,4.742-4.742,4.742h-9.489c-2.614,0-4.742-2.127-4.742-4.742v-1.583h-6.326v1.583
		c0,6.106,4.966,11.068,11.068,11.068h1.58v6.326h6.326v-6.326h1.583c6.103,0,11.068-4.962,11.068-11.068
		s-4.966-11.068-11.068-11.068h-9.489c-2.614,0-4.742-2.127-4.742-4.742c0-2.614,2.128-4.742,4.742-4.742h9.489
		c2.614,0,4.742,2.128,4.742,4.742v1.584H274.011z"/>
</g>
</svg>
