<?xml version="1.0" encoding="utf-8"?>
<!-- Generator: Adobe Illustrator 16.0.0, SVG Export Plug-In . SVG Version: 6.00 Build 0)  -->
<!DOCTYPE svg PUBLIC "-//W3C//DTD SVG 1.1//EN" "http://www.w3.org/Graphics/SVG/1.1/DTD/svg11.dtd">
<svg version="1.1" id="Layer_1" xmlns="http://www.w3.org/2000/svg" xmlns:xlink="http://www.w3.org/1999/xlink" x="0px" y="0px"
	 width="512px" height="512px" viewBox="0 0 512 512" enable-background="new 0 0 512 512" xml:space="preserve">
<g>
	<path fill="#2DB9E5" d="M330.347,5.787H59.999v500.427H452V127.44L330.347,5.787z M335.234,34.261l88.291,88.291h-88.291V34.261z
		 M76.681,489.532V22.467h241.873v116.767H435.32v350.299H76.681z"/>
	<path fill="#EA9E2D" d="M143.404,147.574h75.064c4.612,0,8.34-3.729,8.34-8.341c0-4.612-3.728-8.34-8.34-8.34h-75.064
		c-4.613,0-8.341,3.729-8.341,8.34C135.063,143.846,138.791,147.574,143.404,147.574z"/>
	<path fill="#2DB9E5" d="M143.404,214.298h41.702c4.612,0,8.341-3.728,8.341-8.341c0-4.612-3.729-8.34-8.341-8.34h-41.702
		c-4.613,0-8.341,3.728-8.341,8.34C135.063,210.57,138.791,214.298,143.404,214.298z"/>
	<path fill="#2DB9E5" d="M268.51,214.298h58.384c4.612,0,8.341-3.728,8.341-8.341c0-4.612-3.729-8.34-8.341-8.34H268.51
		c-4.611,0-8.34,3.728-8.34,8.34C260.17,210.57,263.898,214.298,268.51,214.298z"/>
	<path fill="#EA9E2D" d="M220.887,200.119c-1.585,1.501-2.419,3.662-2.419,5.838c0,2.168,0.833,4.337,2.419,5.922
		c1.576,1.501,3.752,2.419,5.921,2.419c2.169,0,4.337-0.843,5.922-2.502c1.501-1.51,2.418-3.67,2.418-5.839
		c0-2.177-0.917-4.346-2.418-5.922C229.561,196.949,223.973,196.949,220.887,200.119z"/>
	<path fill="#2DB9E5" d="M368.597,214.298c2.169,0,4.338-0.918,5.921-2.419c1.502-1.584,2.419-3.753,2.419-5.922
		c0-2.177-0.917-4.346-2.419-5.922c-3.17-3.086-8.674-3.086-11.843,0c-1.511,1.576-2.419,3.745-2.419,5.922
		c0,2.168,0.908,4.337,2.419,5.922C364.251,213.38,366.427,214.298,368.597,214.298z"/>
	<path fill="#2DB9E5" d="M243.489,264.34h-58.383c-4.612,0-8.34,3.729-8.34,8.341c0,4.611,3.728,8.341,8.34,8.341h58.383
		c4.613,0,8.341-3.729,8.341-8.341C251.831,268.068,248.102,264.34,243.489,264.34z"/>
	<path fill="#2DB9E5" d="M143.404,281.021c2.168,0,4.337-0.918,5.922-2.42c1.576-1.585,2.419-3.753,2.419-5.921
		c0-2.177-0.843-4.345-2.419-5.921c-3.169-3.087-8.674-3.087-11.844,0c-1.583,1.576-2.418,3.661-2.418,5.921
		c0,2.168,0.91,4.336,2.418,5.921C139.058,280.104,141.236,281.021,143.404,281.021z"/>
	<path fill="#2DB9E5" d="M169.635,340.79c-18.266,9.508-24.413,27.698-26.657,46.554c-3.452-2.893-6.905-5.778-10.358-8.673
		c-8.174-6.848-20.033,4.888-11.793,11.802c7.798,6.532,15.605,13.07,23.403,19.609c5.488,4.596,13.986,1.692,14.237-5.897
		c0.608-18.064,1.459-39.551,19.584-48.981C187.575,350.239,179.151,335.835,169.635,340.79z"/>
	<path fill="#2DB9E5" d="M225.098,374.059c-11.551,2.678-24.696,17.374-32.828,0.885c-4.746-9.625-19.141-1.185-14.404,8.416
		c4.312,8.748,12.511,14.879,22.261,16.112c4.953,0.627,9.432-0.073,14.078-1.885c3.411-1.326,16.155-10.908,18.907-5.979
		c5.239,9.373,19.651,0.967,14.405-8.417C243.039,375.169,233.973,371.999,225.098,374.059z"/>
	<path fill="#EA9E2D" d="M395.661,293.64c-1.944-0.691-2.803-2.16-3.145-2.977c-0.333-0.816-0.776-2.469,0.117-4.337
		c4.044-8.524,2.353-18.342-4.32-25.021c-6.68-6.665-16.506-8.366-25.014-4.32c-1.885,0.892-3.536,0.451-4.345,0.117
		c-0.826-0.343-2.285-1.201-2.979-3.145c-3.161-8.9-11.301-14.638-20.742-14.638s-17.582,5.738-20.742,14.638
		c-0.694,1.943-2.161,2.802-2.979,3.145c-0.81,0.334-2.468,0.783-4.338-0.117c-8.514-4.028-18.331-2.352-25.02,4.32
		c-6.674,6.68-8.366,16.497-4.321,25.014c0.885,1.876,0.449,3.528,0.116,4.345c-0.342,0.825-1.2,2.285-3.144,2.977
		c-8.898,3.162-14.638,11.302-14.638,20.744c0,9.441,5.739,17.582,14.638,20.741c1.943,0.693,2.802,2.161,3.144,2.979
		c0.333,0.817,0.777,2.469-0.116,4.337c-4.045,8.523-2.353,18.341,4.321,25.021c3.228,3.22,7.188,5.255,11.376,6.072v102.771
		l41.702-41.702l41.702,41.702V373.526c4.188-0.81,8.157-2.836,11.377-6.064c6.673-6.681,8.364-16.498,4.32-25.013
		c-0.885-1.877-0.45-3.528-0.117-4.346c0.342-0.827,1.2-2.285,3.145-2.979c8.9-3.159,14.638-11.3,14.638-20.741
		C410.299,304.941,404.562,296.802,395.661,293.64z M335.234,411.017l-25.021,25.021v-64.705c0.074,0.009,0.149,0.016,0.217,0.033
		c0.416,0.084,0.816,0.184,1.083,0.3c0.409,0.176,0.984,0.476,1.535,0.968c0.559,0.501,1.101,1.2,1.443,2.178
		c3.16,8.899,11.301,14.636,20.742,14.636s17.581-5.736,20.742-14.637c0.344-0.977,0.885-1.676,1.444-2.177
		c0.558-0.5,1.125-0.802,1.534-0.968c0.266-0.108,0.658-0.216,1.076-0.3c0.065-0.009,0.141-0.024,0.215-0.033v64.697
		L335.234,411.017z M390.073,319.412c-5.855,2.076-10.584,6.564-12.963,12.313c-2.385,5.745-2.226,12.268,0.452,17.898
		c1.46,3.06-0.242,5.252-1.052,6.054c-0.659,0.676-2.344,1.869-4.68,1.417l-1.834-0.574c-0.759-0.343-1.559-0.525-2.345-0.769
		c-0.581-0.184-1.149-0.433-1.742-0.574c-0.816-0.184-1.659-0.234-2.494-0.327c-0.674-0.073-1.334-0.215-2.009-0.232
		c-0.809-0.017-1.61,0.118-2.411,0.183c-0.691,0.067-1.393,0.05-2.085,0.185c-1.477,0.274-2.928,0.701-4.337,1.285
		c0,0-0.009,0-0.018,0.008l0,0c-0.366,0.151-0.674,0.393-1.033,0.559c-1.035,0.5-2.078,0.993-3.019,1.644
		c-1.126,0.775-2.152,1.693-3.113,2.66c-0.107,0.108-0.249,0.191-0.356,0.31c-2.103,2.21-3.746,4.86-4.788,7.789
		c-1.117,3.187-3.878,3.528-5.013,3.528s-3.895-0.342-5.03-3.545c-1.042-2.937-2.685-5.58-4.787-7.789
		c-0.084-0.093-0.191-0.15-0.283-0.242c-0.984-1.001-2.034-1.928-3.194-2.728c-0.9-0.626-1.91-1.092-2.901-1.577
		c-0.393-0.19-0.744-0.457-1.152-0.625l0,0c-0.009,0-0.009-0.009-0.009-0.009c-0.174-0.075-0.357-0.092-0.532-0.158
		c-1.218-0.467-2.452-0.859-3.711-1.101c-1.019-0.2-2.028-0.242-3.046-0.3c-0.374-0.018-0.75-0.107-1.126-0.107
		c-0.024,0-0.041,0.008-0.066,0.008c-3.119-0.008-6.146,0.598-8.733,1.858l-1.893,0.592c-2.393,0.543-4.137-0.691-4.82-1.385
		c-0.81-0.8-2.512-2.985-1.051-6.063c2.668-5.622,2.835-12.135,0.45-17.891c-2.378-5.739-7.106-10.234-12.962-12.312
		c-3.193-1.116-3.535-3.876-3.535-5.011c0-1.136,0.342-3.896,3.543-5.029c5.855-2.077,10.585-6.565,12.963-12.312
		c2.385-5.747,2.227-12.269-0.452-17.898c-1.459-3.06,0.244-5.253,1.052-6.056c0.801-0.81,2.977-2.494,6.064-1.051
		c5.613,2.67,12.135,2.853,17.891,0.451c5.737-2.377,10.233-7.106,12.311-12.962c1.117-3.185,3.877-3.527,5.012-3.527
		s3.896,0.342,5.028,3.545c2.086,5.855,6.564,10.583,12.312,12.961c5.737,2.402,12.268,2.228,17.898-0.45
		c3.054-1.477,5.263,0.241,6.057,1.051c0.808,0.802,2.509,2.986,1.05,6.063c-2.669,5.622-2.835,12.136-0.451,17.891
		c2.376,5.739,7.107,10.234,12.962,12.312c3.186,1.117,3.526,3.877,3.526,5.013C393.616,315.519,393.275,318.278,390.073,319.412z"
		/>
</g>
</svg>
