<?xml version="1.0" encoding="utf-8"?>
<!-- Generator: Adobe Illustrator 16.0.0, SVG Export Plug-In . SVG Version: 6.00 Build 0)  -->
<!DOCTYPE svg PUBLIC "-//W3C//DTD SVG 1.1//EN" "http://www.w3.org/Graphics/SVG/1.1/DTD/svg11.dtd">
<svg version="1.1" id="Layer_1" xmlns="http://www.w3.org/2000/svg" xmlns:xlink="http://www.w3.org/1999/xlink" x="0px" y="0px"
	 width="512px" height="512px" viewBox="0 0 512 512" enable-background="new 0 0 512 512" xml:space="preserve">
<path fill="#F9F9FA" d="M443.533,269.34c0,103.649-84.026,187.681-187.682,187.681c-103.654,0-187.681-84.031-187.681-187.681
	c0-103.653,84.027-187.682,187.681-187.682C359.507,81.658,443.533,165.687,443.533,269.34z"/>
<circle fill="#F9F9FA" cx="29.431" cy="388.323" r="16.354"/>
<path fill="#F9F9FA" d="M173.753,58.106c0,5.105-4.139,9.246-9.247,9.246c-5.103,0-9.243-4.14-9.243-9.246
	c0-5.107,4.14-9.246,9.243-9.246C169.614,48.86,173.753,52.999,173.753,58.106z"/>
<path fill="#F9F9FA" d="M101.241,444.133c0,18.648-15.117,33.775-33.775,33.775c-18.645,0-33.769-15.127-33.769-33.775
	c0-18.652,15.125-33.77,33.769-33.77C86.124,410.363,101.241,425.48,101.241,444.133z"/>
<path fill="#F9F9FA" d="M459.536,166.163c0,9.423-7.639,17.067-17.062,17.067c-9.422,0-17.062-7.644-17.062-17.067
	c0-9.424,7.64-17.063,17.062-17.063C451.897,149.1,459.536,156.739,459.536,166.163z"/>
<path fill="#F9F9FA" d="M117.969,56.155H99.84V38.026c0-2.345-1.92-4.265-4.265-4.265H81.712c-2.345,0-4.266,1.92-4.266,4.265
	v18.129H59.318c-2.345,0-4.265,1.92-4.265,4.266v13.862c0,2.346,1.92,4.266,4.265,4.266h18.128v18.128
	c0,2.345,1.921,4.266,4.266,4.266h13.863c2.345,0,4.265-1.921,4.265-4.266V78.548h18.128c2.345,0,4.266-1.92,4.266-4.266V60.42
	C122.234,58.075,120.314,56.155,117.969,56.155z"/>
<path fill="#F9F9FA" d="M439.326,102.367h-11.988V90.378c0-1.551-1.276-2.822-2.824-2.822h-9.172c-1.551,0-2.816,1.271-2.816,2.822
	v11.988h-11.997c-1.55,0-2.816,1.27-2.816,2.822v9.168c0,1.552,1.267,2.822,2.816,2.822h11.997v11.99
	c0,1.55,1.266,2.821,2.816,2.821h9.172c1.548,0,2.824-1.271,2.824-2.821v-11.99h11.988c1.549,0,2.814-1.271,2.814-2.822v-9.168
	C442.141,103.637,440.875,102.367,439.326,102.367z"/>
<path fill="#F9F9FA" d="M81.254,385.19h-6.237v-6.231c0-0.809-0.657-1.467-1.465-1.467h-4.77c-0.804,0-1.465,0.658-1.465,1.467
	v6.231H61.08c-0.804,0-1.465,0.663-1.465,1.468v4.772c0,0.804,0.662,1.466,1.465,1.466h6.237v6.231c0,0.809,0.662,1.467,1.465,1.467
	h4.77c0.808,0,1.465-0.658,1.465-1.467v-6.231h6.237c0.808,0,1.466-0.662,1.466-1.466v-4.772
	C82.72,385.854,82.063,385.19,81.254,385.19z"/>
<path fill="#F9F9FA" d="M494.303,399.708h-20.049v-20.044c0-2.592-2.12-4.718-4.72-4.718H454.21c-2.596,0-4.721,2.126-4.721,4.718
	v20.044h-20.043c-2.597,0-4.721,2.124-4.721,4.719v15.33c0,2.589,2.124,4.715,4.721,4.715h20.043v20.044
	c0,2.596,2.125,4.72,4.721,4.72h15.324c2.6,0,4.72-2.124,4.72-4.72v-20.044h20.049c2.586,0,4.711-2.126,4.711-4.715v-15.33
	C499.014,401.832,496.889,399.708,494.303,399.708z"/>
<g>
	<rect x="163.16" y="236.861" fill="#2DB9E5" width="184.943" height="124.771"/>
	<path fill="#183651" d="M348.104,365.031H163.16c-2.04,0-3.398-1.358-3.398-3.398V236.861c0-2.04,1.358-3.398,3.398-3.398h184.943
		c2.044,0,3.398,1.359,3.398,3.398v124.771C351.502,363.673,350.147,365.031,348.104,365.031z M166.558,358.235h178.147V240.264
		H166.558V358.235z"/>
	<rect x="176.756" y="250.462" fill="#FFFFFF" width="157.751" height="111.17"/>
	<g>
		<rect x="282.493" y="332.738" fill="#EA9E2D" width="6.797" height="6.796"/>
		<rect x="299.488" y="332.738" fill="#EA9E2D" width="6.801" height="6.796"/>
		<rect x="316.826" y="332.738" fill="#EA9E2D" width="6.801" height="6.796"/>
	</g>
	<path fill="#FFFFFF" d="M290.987,353.813v7.82h-71.054v-7.82H150.24c0,12.581,10.198,22.78,22.779,22.78h165.566
		c12.581,0,22.776-10.199,22.776-22.78H290.987z"/>
	<path fill="#183651" d="M338.244,379.995H173.02c-14.278,0-26.178-11.562-26.178-26.183c0-2.035,1.358-3.398,3.398-3.398h70.036
		c2.041,0,3.399,1.363,3.399,3.398v4.423h64.256v-4.423c0-2.035,1.358-3.398,3.397-3.398h70.033c2.04,0,3.402,1.363,3.402,3.398
		C364.426,368.434,352.864,379.995,338.244,379.995z M153.98,357.215c1.702,9.179,9.518,15.979,19.039,15.979h165.566
		c9.518,0,17.339-6.801,19.039-15.979h-63.236v4.418c0,2.04-1.362,3.398-3.401,3.398h-71.054c-2.039,0-3.397-1.358-3.397-3.398
		v-4.418H153.98z"/>
	<path fill="#FFFFFF" d="M189.338,258.96h14.96l1.358-11.218c3.74-1.02,7.139-2.378,10.198-4.08l8.84,6.8l10.538-10.542l-6.796-8.84
		c1.697-3.056,3.397-6.458,4.079-10.199l11.219-1.358v-14.959l-11.219-1.358c-1.021-3.741-2.382-7.14-4.079-10.199l6.796-8.84
		l-10.538-9.86l-8.84,6.801c-3.06-1.697-6.458-3.398-10.198-4.08l-1.358-11.218h-14.96l-1.362,11.218
		c-3.398,0.681-6.796,2.04-9.856,4.08l-8.84-6.801l-10.538,10.542l6.797,8.84c-1.697,3.056-3.398,6.458-4.079,10.199l-11.219,1.02
		v14.955l11.219,1.363c1.02,3.741,2.382,7.139,4.079,10.199l-6.797,8.84l10.538,10.538l8.84-6.797
		c3.061,1.697,6.458,3.398,10.198,4.076L189.338,258.96z"/>
	<path fill="#243148" d="M204.298,262.362h-14.96c-1.701,0-3.06-1.362-3.402-3.06l-1.016-8.84c-2.383-0.681-4.422-1.701-6.801-2.721
		l-7.139,5.442c-1.362,1.02-3.402,1.02-4.423-0.343l-10.536-10.542c-1.359-1.358-1.359-3.056-0.339-4.418l5.438-7.139
		c-1.02-2.04-2.04-4.418-2.722-6.8l-8.84-1.021c-1.697-0.338-3.056-1.697-3.056-3.398v-14.617c0-1.701,1.358-3.064,3.056-3.402
		l9.183-1.02c0.677-2.378,1.697-4.418,2.718-6.796l-5.438-6.801c-1.021-1.362-1.021-3.402,0.338-4.422l10.542-10.537
		c1.358-1.358,3.059-1.358,4.417-0.339l7.14,5.438c2.04-1.02,4.422-2.04,6.801-2.721l0.677-8.84
		c0.343-1.697,1.701-3.056,3.402-3.056h14.96c1.697,0,3.06,1.359,3.397,3.056l1.021,8.84c2.378,0.682,4.422,1.701,6.801,2.721
		l7.139-5.438c1.358-1.02,3.397-1.02,4.422,0.339l10.537,10.537c1.358,1.362,1.358,3.06,0.339,4.422l-5.438,7.139
		c1.02,2.04,2.04,4.422,2.717,6.801l8.84,1.016c1.701,0.343,3.06,1.701,3.06,3.403v14.959c0,1.697-1.358,3.06-3.06,3.398l-8.84,1.02
		c-0.677,2.383-1.697,4.422-2.717,6.801l5.438,7.139c1.02,1.359,1.02,3.403-0.339,4.422l-10.537,10.538
		c-1.362,1.362-3.063,1.362-4.422,0.339l-7.139-5.438c-2.041,1.02-4.423,2.04-6.801,2.721l-1.021,8.836
		C207.695,261.338,205.995,262.362,204.298,262.362z M192.397,255.562h8.84l1.016-8.159c0.343-1.363,1.025-2.721,2.722-3.06
		c3.06-0.681,6.463-2.044,9.184-3.741c1.358-0.682,2.717-0.682,3.736,0.338l6.462,5.099l6.457-6.458l-5.099-6.462
		c-1.021-1.02-1.021-2.717-0.339-3.737c1.701-2.721,3.061-5.78,3.737-9.179c0.342-1.362,1.362-2.378,2.721-2.721l8.159-1.02v-8.84
		l-8.159-1.02c-1.358-0.338-2.721-1.02-2.721-2.721c-0.677-3.056-2.036-6.458-3.737-9.179c-0.682-1.358-0.682-2.717,0.339-3.737
		l5.099-6.462l-6.457-6.458l-6.462,5.099c-1.02,1.02-2.717,1.02-3.736,0.339c-2.721-1.697-5.781-3.056-9.184-3.741
		c-1.358-0.334-2.379-1.358-2.722-3.06l-1.016-8.159h-8.84l-1.02,8.159c0,1.363-1.021,2.726-2.722,3.06
		c-3.06,1.363-6.119,2.382-8.84,4.08c-1.358,1.02-2.717,0.681-4.079,0l-6.119-5.096l-6.458,6.458l5.1,6.119
		c0.677,1.359,1.02,2.721,0,4.08c-1.702,2.721-2.722,5.781-3.742,9.179c-0.338,1.363-1.357,2.383-2.716,2.721l-8.164,1.02v8.84
		l8.164,1.02c1.358,0.338,2.716,1.02,2.716,2.717c0.682,3.064,2.04,6.462,3.742,9.179c0.677,1.362,0.677,2.725-0.344,3.74
		l-5.094,6.462l6.457,6.458l6.458-5.438c1.019-1.02,2.721-1.02,3.74-0.342c2.721,1.701,5.781,3.063,9.179,3.741
		c1.363,0.342,2.379,1.362,2.722,3.06L192.397,255.562z"/>
	<circle fill="#EA9E2D" cx="196.815" cy="212.385" r="26.859"/>
	<path fill="#FFFFFF" d="M196.815,199.126c7.325,0,13.259,5.938,13.259,13.258c0,7.325-5.934,13.258-13.259,13.258
		c-7.32,0-13.259-5.933-13.259-13.258C183.557,205.064,189.495,199.126,196.815,199.126z"/>
	<path fill="#2DB9E5" d="M196.815,229.045c-9.179,0-16.656-7.482-16.656-16.661s7.478-16.661,16.656-16.661
		c9.18,0,16.66,7.482,16.66,16.661S205.995,229.045,196.815,229.045z M196.815,202.867c-5.438,0-9.859,4.418-9.859,9.856
		c0,5.442,4.422,9.86,9.859,9.86s9.859-4.418,9.859-9.86C206.675,207.285,202.258,202.867,196.815,202.867z"/>
	<path fill="#FFFFFF" d="M297.792,298.059h17.337l1.697-12.916c4.084-1.021,8.159-2.722,11.9-4.766l10.197,8.163l12.243-12.242
		l-8.162-10.198c2.04-3.737,3.74-7.479,4.756-11.896l12.925-1.701v-17.338l-12.925-1.701c-1.016-4.08-2.716-8.159-4.756-11.9
		l8.162-10.198l-12.243-12.238l-10.197,8.159c-3.741-2.04-7.482-3.741-11.9-4.761l-1.697-12.916h-17.337l-1.702,12.916
		c-4.079,1.02-8.158,2.721-11.898,4.761l-10.2-8.159l-12.238,12.238l8.159,10.198c-2.04,3.741-3.74,7.482-4.761,11.9l-12.92,1.701
		v17.338l12.92,1.701c1.021,4.08,2.721,8.159,4.761,11.896l-8.159,10.198l12.238,12.242l10.2-8.163
		c3.74,2.044,7.48,3.745,11.898,4.766L297.792,298.059z"/>
	<path fill="#243148" d="M315.468,301.461H298.13c-1.7,0-3.059-1.363-3.402-3.064l-1.358-10.537
		c-3.061-1.02-5.777-2.039-8.498-3.398l-8.501,6.458c-1.354,1.021-3.398,1.021-4.419-0.339l-12.238-12.238
		c-1.362-1.363-1.362-3.06-0.339-4.418l6.458-8.502c-1.358-2.721-2.721-5.441-3.402-8.501l-10.536-1.02
		c-1.697-0.338-3.061-1.697-3.061-3.398v-17.338c0-1.701,1.363-3.06,3.061-3.398l10.536-1.363c1.024-3.06,2.044-5.781,3.398-8.497
		l-6.457-8.502c-1.021-1.363-1.021-3.398,0.342-4.418l12.238-12.239c1.355-1.358,3.061-1.358,4.419-0.342l8.501,6.461
		c2.721-1.362,5.438-2.721,8.498-3.402l1.358-10.538c0.344-1.697,1.702-3.06,3.402-3.06h17.338c1.696,0,3.06,1.363,3.398,3.06
		l1.362,10.538c2.717,1.02,5.78,2.04,8.498,3.402l8.497-6.461c1.362-1.016,3.402-1.016,4.426,0.342l12.235,12.239
		c1.358,1.358,1.358,3.055,0.342,4.418l-6.805,8.502c1.363,2.721,2.722,5.438,3.402,8.497l10.538,1.363
		c1.7,0.338,3.059,1.697,3.059,3.398v17.338c0,1.701-1.358,3.06-3.059,3.398l-10.538,1.363c-1.023,3.055-2.039,5.78-3.402,8.496
		l6.463,8.502c1.02,1.359,1.02,3.398-0.339,4.418l-12.238,12.239c-1.363,1.362-3.063,1.362-4.422,0.343l-8.498-6.462
		c-2.721,1.358-5.442,2.722-8.502,3.397l-1.358,10.542C318.527,300.436,317.164,301.461,315.468,301.461z M300.847,294.66h11.562
		l1.358-9.86c0.343-1.358,1.021-2.722,2.721-3.06c3.741-1.021,7.481-2.379,10.877-4.422c1.366-0.678,2.724-0.678,3.744,0.342
		l7.815,6.119l8.164-8.158l-6.118-7.82c-1.025-1.021-1.025-2.722-0.344-3.737c2.04-3.402,3.402-7.143,4.423-10.88
		c0.338-1.363,1.358-2.382,2.717-2.721l9.859-1.362v-11.557l-9.859-1.359c-1.358-0.342-2.717-1.02-2.717-2.721
		c-1.021-3.741-2.383-7.478-4.423-10.88c-0.682-1.358-0.682-2.721,0.344-3.741l6.118-7.816l-8.164-8.163l-7.815,6.124
		c-1.021,1.02-2.721,1.02-3.744,0.338c-3.396-2.04-7.136-3.402-10.877-4.422c-1.358-0.338-2.378-1.358-2.721-3.06l-1.358-9.856
		h-11.562l-1.358,9.856c-0.338,1.363-1.021,2.721-2.721,3.06c-3.741,1.02-7.478,2.383-10.876,4.422
		c-1.358,0.682-2.726,0.682-3.741-0.338l-7.82-6.124l-7.82,8.84l6.119,7.82c1.02,1.02,1.02,2.717,0.343,3.737
		c-2.039,3.402-3.397,7.143-4.423,10.88c-0.338,1.363-1.358,2.382-2.721,2.721l-9.859,1.362v11.558l9.859,1.358
		c1.362,0.343,2.721,1.02,2.721,2.721c1.025,3.741,2.384,7.477,4.423,10.879c0.677,1.359,0.677,2.722-0.343,3.741l-6.119,7.816
		l8.163,8.163l7.82-6.119c1.016-1.023,2.717-1.023,3.736-0.342c3.399,2.039,7.14,3.401,10.88,4.421
		c1.358,0.339,2.379,1.358,2.718,3.06L300.847,294.66z"/>
	<path fill="#2DB9E5" d="M306.628,212.384c17.275,0,31.281,14.001,31.281,31.278c0,17.275-14.006,31.281-31.281,31.281
		c-17.272,0-31.274-14.006-31.274-31.281C275.354,226.386,289.355,212.384,306.628,212.384z"/>
	<path fill="#FFFFFF" d="M306.628,228.364c8.452,0,15.298,6.85,15.298,15.298c0,8.448-6.846,15.298-15.298,15.298
		c-8.448,0-15.299-6.85-15.299-15.298C291.329,235.214,298.18,228.364,306.628,228.364z"/>
	<path fill="#EA9E2D" d="M306.628,262.362c-10.198,0-18.696-8.501-18.696-18.7c0-10.199,8.498-18.696,18.696-18.696
		s18.699,8.497,18.699,18.696C325.327,253.861,316.826,262.362,306.628,262.362z M306.628,231.762c-6.458,0-11.9,5.442-11.9,11.9
		c0,6.458,5.442,11.9,11.9,11.9c6.461,0,11.899-5.442,11.899-11.9C318.527,237.204,313.089,231.762,306.628,231.762z"/>
	<g>
		<rect x="190.02" y="332.738" fill="#E1E4E8" width="71.391" height="6.796"/>
		<rect x="190.02" y="315.738" fill="#E1E4E8" width="71.391" height="6.801"/>
		<rect x="190.02" y="298.739" fill="#E1E4E8" width="58.813" height="6.801"/>
	</g>
</g>
</svg>
