<?xml version="1.0" encoding="utf-8"?>
<!-- Generator: Adobe Illustrator 16.0.0, SVG Export Plug-In . SVG Version: 6.00 Build 0)  -->
<!DOCTYPE svg PUBLIC "-//W3C//DTD SVG 1.1//EN" "http://www.w3.org/Graphics/SVG/1.1/DTD/svg11.dtd">
<svg version="1.1" id="Layer_1" xmlns="http://www.w3.org/2000/svg" xmlns:xlink="http://www.w3.org/1999/xlink" x="0px" y="0px"
	 width="512px" height="512px" viewBox="0 0 512 512" enable-background="new 0 0 512 512" xml:space="preserve">
<g>
	<g>
		<g>
			<path fill="#2DB9E5" d="M378.043,351.05v-43.925c0-3.556-2.881-6.435-6.434-6.435s-6.433,2.879-6.433,6.435v43.925
				c-7.562,2.661-12.997,9.869-12.997,18.328c0,3.655,1.017,7.074,2.778,9.997L334.78,401.34c-2.405,2.615-2.232,6.685,0.383,9.09
				c1.236,1.135,2.797,1.695,4.351,1.695c1.739,0,3.473-0.701,4.741-2.083l20.618-22.442c2.101,0.779,4.37,1.206,6.736,1.206
				c10.714,0,19.431-8.718,19.431-19.429C391.04,360.92,385.602,353.711,378.043,351.05z M371.609,375.938
				c-3.618,0-6.561-2.943-6.561-6.561c-0.001-3.618,2.942-6.563,6.561-6.563s6.562,2.944,6.562,6.563
				C378.171,372.995,375.228,375.938,371.609,375.938z"/>
		</g>
	</g>
	<g>
		<g>
			<path fill="#2DB9E5" d="M473.912,286.077V151.666c0.159-0.598,0.252-1.224,0.252-1.873V70.741c0-4.034-3.271-7.305-7.305-7.305
				h-0.251h-45.381V37.044c0-15.98-13.001-28.982-28.979-28.982c-15.98,0-28.982,13.001-28.982,28.982v26.394H119.39V37.044
				c0-15.98-13.001-28.982-28.98-28.982c-15.979,0-28.98,13.003-28.98,28.982v26.394H15.797h-0.25c-4.034,0-7.304,3.269-7.304,7.304
				v353.001c0,4.034,3.27,7.305,7.304,7.305h240.135c21.963,42.322,66.203,71.305,117.088,71.305
				c72.689,0,131.826-59.138,131.826-131.825C504.596,338.421,493.056,308.967,473.912,286.077z M377.876,37.044
				c0-7.927,6.449-14.374,14.373-14.374c7.926,0,14.371,6.449,14.371,14.374v57.109c0,0.99-0.1,1.958-0.291,2.892
				c-1.343,6.544-7.146,11.481-14.08,11.481c-7.928,0-14.373-6.448-14.373-14.374V37.044z M76.038,37.044
				c0-7.927,6.447-14.374,14.372-14.374c7.925,0,14.374,6.449,14.374,14.374v57.109c0,7.925-6.449,14.374-14.374,14.374
				c-7.924,0-14.372-6.448-14.372-14.374V37.044z M23.101,78.044h38.33v16.109c0,15.979,13,28.982,28.98,28.982
				c15.98,0,28.98-13.003,28.98-28.982V78.044H363.27v16.109c0,15.979,13.001,28.982,28.981,28.982
				c15.979,0,28.979-13.003,28.979-28.982V78.044h38.08v64.445H23.101V78.044z M22.849,416.438V157.097h436.458v113.991
				c-9.734-8.47-20.604-15.418-32.236-20.677c-0.436-0.198-0.876-0.387-1.313-0.58c-0.442-0.195-0.888-0.393-1.333-0.583
				c-0.779-0.333-1.565-0.654-2.353-0.974c-0.101-0.041-0.199-0.083-0.3-0.124c-6.52-2.619-13.291-4.729-20.271-6.287v-42.916
				c0-4.034-3.271-7.304-7.305-7.304H347.14c-4.034,0-7.304,3.27-7.304,7.304v43.917c-56.806,14.663-98.892,66.34-98.892,127.661
				c0,1.082,0.016,2.163,0.041,3.242c0.005,0.245,0.016,0.492,0.024,0.739c0.025,0.861,0.056,1.721,0.099,2.579
				c0.01,0.206,0.022,0.41,0.035,0.618c0.049,0.94,0.11,1.882,0.178,2.82c0.007,0.091,0.014,0.182,0.021,0.272
				c0.937,12.254,3.547,24.181,7.82,35.641H22.849z M386.892,206.251v32.45h-32.449v-32.45H386.892z M372.77,487.744
				c-60.587,0-110.587-46.204-116.612-105.229c-0.002-0.027-0.004-0.054-0.006-0.083c-0.095-0.928-0.176-1.86-0.25-2.795
				c-0.015-0.201-0.026-0.403-0.04-0.603c-0.055-0.783-0.108-1.566-0.15-2.354c-0.021-0.443-0.038-0.889-0.054-1.333
				c-0.023-0.568-0.049-1.133-0.065-1.701c-0.026-1.037-0.042-2.078-0.042-3.119c0-64.636,52.585-117.219,117.22-117.219
				c1.043,0,2.084,0.016,3.123,0.042c0.18,0.004,0.36,0.015,0.542,0.02c0.868,0.027,1.736,0.06,2.603,0.105
				c0.137,0.006,0.272,0.018,0.41,0.026c0.919,0.051,1.836,0.112,2.755,0.185c0.065,0.006,0.132,0.013,0.199,0.019
				c13.494,1.113,26.592,4.547,38.751,10.058c0.42,0.192,0.834,0.39,1.248,0.586c0.43,0.199,0.856,0.396,1.283,0.603
				c0.748,0.362,1.491,0.732,2.23,1.107c0.073,0.04,0.147,0.075,0.22,0.114c37.88,19.447,63.856,58.923,63.856,104.352
				C489.989,435.161,437.404,487.744,372.77,487.744z"/>
		</g>
	</g>
	<g>
		<g>
			<path fill="#EA9E2D" d="M434.036,437.771c-2.396-3.077-6.832-3.629-9.907-1.23c-14.796,11.527-32.555,17.622-51.359,17.622
				c-46.116,0-83.637-37.521-83.637-83.637c0-18.353,5.831-35.771,16.859-50.366c2.35-3.112,1.733-7.538-1.378-9.888
				c-3.111-2.351-7.538-1.732-9.887,1.378c-12.896,17.067-19.713,37.429-19.713,58.876c0,53.902,43.853,97.756,97.755,97.756
				c21.978,0,42.74-7.123,60.036-20.603C435.882,445.281,436.433,440.846,434.036,437.771z"/>
		</g>
	</g>
	<g>
		<g>
			<path fill="#EA9E2D" d="M372.77,272.771c-22.363,0-43.41,7.352-60.869,21.257c-3.049,2.431-3.552,6.871-1.121,9.919
				c2.428,3.049,6.869,3.552,9.919,1.123c14.932-11.896,32.936-18.184,52.071-18.184c46.117,0,83.64,37.521,83.64,83.638
				c0,19.158-6.304,37.183-18.226,52.125c-2.433,3.047-1.934,7.489,1.111,9.92c1.303,1.039,2.857,1.542,4.4,1.542
				c2.071,0,4.126-0.908,5.521-2.657c13.94-17.466,21.309-38.537,21.309-60.93C470.525,316.623,426.671,272.771,372.77,272.771z"/>
		</g>
	</g>
	<g>
		<g>
			<path fill="#EA9E2D" d="M123.218,191.644H76.162c-4.034,0-7.304,3.269-7.304,7.302v47.056c0,4.036,3.27,7.303,7.304,7.303h47.057
				c4.034,0,7.304-3.268,7.304-7.303v-47.056C130.522,194.914,127.252,191.644,123.218,191.644z M115.915,238.698H83.466v-32.447
				h32.45L115.915,238.698L115.915,238.698z"/>
		</g>
	</g>
	<g>
		<g>
			<path fill="#2DB9E5" d="M209.444,191.644h-47.057c-4.034,0-7.304,3.269-7.304,7.302v47.056c0,4.036,3.27,7.303,7.304,7.303
				h47.057c4.034,0,7.305-3.268,7.305-7.303v-47.056C216.747,194.914,213.479,191.644,209.444,191.644z M202.141,238.698h-32.45
				v-32.447h32.45V238.698z"/>
		</g>
	</g>
	<g>
		<g>
			<path fill="#EA9E2D" d="M295.672,191.644h-47.059c-4.033,0-7.303,3.27-7.303,7.304v47.055c0,4.035,3.27,7.304,7.303,7.304h47.059
				c4.032,0,7.303-3.27,7.303-7.304v-47.055C302.975,194.914,299.704,191.644,295.672,191.644z M288.367,238.698h-32.45V206.25
				h32.45V238.698z"/>
		</g>
	</g>
	<g>
		<g>
			<path fill="#2DB9E5" d="M123.218,292.666H76.162c-4.034,0-7.304,3.268-7.304,7.303v47.056c0,4.036,3.27,7.305,7.304,7.305h47.057
				c4.034,0,7.304-3.269,7.304-7.305v-47.056C130.522,295.934,127.252,292.666,123.218,292.666z M115.915,339.723H83.466v-32.451
				h32.45L115.915,339.723L115.915,339.723z"/>
		</g>
	</g>
	<g>
		<g>
			<path fill="#EA9E2D" d="M209.444,292.666h-47.057c-4.034,0-7.304,3.268-7.304,7.303v47.056c0,4.036,3.27,7.305,7.304,7.305
				h47.057c4.034,0,7.305-3.269,7.305-7.305v-47.056C216.747,295.934,213.479,292.666,209.444,292.666z M202.141,339.723h-32.45
				v-32.451h32.45V339.723z"/>
		</g>
	</g>
</g>
</svg>
