<?xml version="1.0" encoding="utf-8"?>
<!-- Generator: Adobe Illustrator 16.0.0, SVG Export Plug-In . SVG Version: 6.00 Build 0)  -->
<!DOCTYPE svg PUBLIC "-//W3C//DTD SVG 1.1//EN" "http://www.w3.org/Graphics/SVG/1.1/DTD/svg11.dtd">
<svg version="1.1" id="Layer_1" xmlns="http://www.w3.org/2000/svg" xmlns:xlink="http://www.w3.org/1999/xlink" x="0px" y="0px"
	 width="512px" height="512px" viewBox="0 0 512 512" enable-background="new 0 0 512 512" xml:space="preserve">
<path fill-rule="evenodd" clip-rule="evenodd" fill="#FFFFFF" d="M28.062,486.937c0.855-7.2,1.681-14.401,2.569-21.598
	c6.721-54.506,30.514-100.377,70.336-137.943c25.386-23.948,54.955-40.896,88.367-51.082c1.617-0.493,3.186-1.142,5.98-2.152
	c-56.336-31.54-84.684-78.365-78.824-142.553c3.583-39.252,22.674-71.291,54.04-95.377C230.934-10.155,318.594,0.827,365.081,60.64
	c27.259,35.074,36.455,74.736,26.59,118.078c-9.842,43.245-36.271,73.976-76.469,95.138c2.882,1.15,4.477,1.873,6.126,2.433
	c87.214,29.54,139.719,89.65,157.563,179.813c2.358,11.921,2.182,24.381,2.705,36.611c0.312,7.252-4.577,12.127-11.421,12.507
	c-7.535,0.419-12.433-3.59-13.417-11.103c-2.234-17.05-2.317-34.707-6.985-51.056c-23.017-80.619-75.742-131.243-158.195-147.588
	c-105.402-20.896-205.47,47.356-230.573,147.003c-3.849,15.276-4.98,31.296-6.641,47.047c-0.93,8.819-3.221,13.935-9.21,15.402
	c-7.401,1.812-11.754-0.659-16.235-9.185c-0.164-0.313-0.565-0.496-0.855-0.739C28.062,492.313,28.062,489.622,28.062,486.937z
	 M255.534,262.066c62.976,0.06,114.461-51.2,114.432-114.658C369.938,84.727,319.948,32.927,255.384,32.98
	c-63.829,0.054-114.452,50.677-114.445,114.557C140.946,212.015,192.843,261.725,255.534,262.066z"/>
</svg>
