<?xml version="1.0" encoding="utf-8"?>
<!-- Generator: Adobe Illustrator 16.0.0, SVG Export Plug-In . SVG Version: 6.00 Build 0)  -->
<!DOCTYPE svg PUBLIC "-//W3C//DTD SVG 1.1//EN" "http://www.w3.org/Graphics/SVG/1.1/DTD/svg11.dtd">
<svg version="1.1" id="Layer_1" xmlns="http://www.w3.org/2000/svg" xmlns:xlink="http://www.w3.org/1999/xlink" x="0px" y="0px"
	 width="512px" height="512px" viewBox="0 0 512 512" enable-background="new 0 0 512 512" xml:space="preserve">
<path fill="none" stroke="#666766" stroke-width="14" stroke-linecap="round" stroke-linejoin="round" d="M139.076,138.33
	C41.338,236.414-30.692,388.287,57.095,476.393c6.81,6.848,31.663,25.379,62.446,18.638c36.221-7.937,138.732-91.155,76.691-152.813
	c-37.977-37.738-42.252-19.265-49.756-26.119c-14.349-13.103,7.749-64.536,56.631-113.565
	c48.873-49.07,100.568-70.106,113.645-55.673c6.81,7.522-14.126,14.12,23.841,51.866c62.829,62.431,147.867-41.867,155.775-78.244
	c6.724-30.88-13.524-57.629-20.344-64.466C388.218-32.128,236.822,40.23,139.076,138.33z"/>
</svg>
