<?xml version="1.0" encoding="utf-8"?>
<!-- Generator: Adobe Illustrator 16.0.0, SVG Export Plug-In . SVG Version: 6.00 Build 0)  -->
<!DOCTYPE svg PUBLIC "-//W3C//DTD SVG 1.1//EN" "http://www.w3.org/Graphics/SVG/1.1/DTD/svg11.dtd">
<svg version="1.1" id="Layer_1" xmlns="http://www.w3.org/2000/svg" xmlns:xlink="http://www.w3.org/1999/xlink" x="0px" y="0px"
	 width="512px" height="512px" viewBox="0 0 512 512" enable-background="new 0 0 512 512" xml:space="preserve">
<g>
	<path fill-rule="evenodd" clip-rule="evenodd" fill="#676767" d="M335.731,371.241c-93.62,71.715-219.507,50.699-286.698-32.354
		C-18.08,255.932-11.73,136.492,63.489,62.464c75.988-74.786,195.226-80.097,276.564-12.57
		c83.173,69.049,101.549,193.731,31.209,285.681c1.261,1.349,2.546,2.81,3.917,4.183c41.846,41.861,83.675,83.74,125.574,125.548
		c7.404,7.388,10.249,16.03,7.379,26.051c-5.271,18.405-27.845,23.975-41.885,10.254c-16.382-16.01-32.452-32.336-48.645-48.539
		c-26.426-26.441-52.84-52.896-79.263-79.343C337.569,372.956,336.761,372.22,335.731,371.241z M208.506,52.493
		c-86.659,0.545-156.604,71.026-155.992,157.186c0.611,85.791,71.333,155.763,156.874,155.205
		c85.857-0.559,155.847-71.083,155.454-156.642C364.45,122.379,293.762,51.958,208.506,52.493z"/>
</g>
</svg>
